<mxfile host="Electron" modified="2023-12-18T02:51:53.431Z" agent="Mozilla/5.0 (Windows NT 10.0; Win64; x64) AppleWebKit/537.36 (KHTML, like Gecko) draw.io/21.8.2 Chrome/114.0.5735.289 Electron/25.8.1 Safari/537.36" etag="lHs79lxeI0AKTBo5BNrZ" version="21.8.2" type="device" pages="6">
  <diagram name="Order OBS" id="wwqqE7kaTn5ZOo_-4KFG">
    <mxGraphModel dx="1178" dy="628" grid="1" gridSize="10" guides="1" tooltips="1" connect="1" arrows="1" fold="1" page="1" pageScale="1" pageWidth="850" pageHeight="1100" math="0" shadow="0">
      <root>
        <mxCell id="0" />
        <mxCell id="1" parent="0" />
        <mxCell id="tRfWzGCdKMlE6d6gyVRb-1" value="" style="ellipse;whiteSpace=wrap;html=1;aspect=fixed;fillColor=#1C8AEB;" vertex="1" parent="1">
          <mxGeometry x="23" y="270" width="70" height="70" as="geometry" />
        </mxCell>
        <mxCell id="tRfWzGCdKMlE6d6gyVRb-2" value="" style="endArrow=classic;html=1;rounded=0;exitX=1;exitY=0.5;exitDx=0;exitDy=0;entryX=-0.022;entryY=0.312;entryDx=0;entryDy=0;entryPerimeter=0;" edge="1" parent="1" source="tRfWzGCdKMlE6d6gyVRb-1" target="tRfWzGCdKMlE6d6gyVRb-8">
          <mxGeometry width="50" height="50" relative="1" as="geometry">
            <mxPoint x="313" y="370" as="sourcePoint" />
            <mxPoint x="233" y="305" as="targetPoint" />
          </mxGeometry>
        </mxCell>
        <mxCell id="tRfWzGCdKMlE6d6gyVRb-3" value="createOrder()" style="edgeLabel;html=1;align=center;verticalAlign=middle;resizable=0;points=[];" vertex="1" connectable="0" parent="tRfWzGCdKMlE6d6gyVRb-2">
          <mxGeometry x="-0.0947" relative="1" as="geometry">
            <mxPoint as="offset" />
          </mxGeometry>
        </mxCell>
        <mxCell id="tRfWzGCdKMlE6d6gyVRb-4" value="&lt;font style=&quot;font-size: 20px;&quot;&gt;Order&lt;/font&gt;" style="text;html=1;strokeColor=none;fillColor=none;align=center;verticalAlign=middle;whiteSpace=wrap;rounded=0;" vertex="1" parent="1">
          <mxGeometry x="93" y="180" width="80" height="40" as="geometry" />
        </mxCell>
        <mxCell id="tRfWzGCdKMlE6d6gyVRb-5" style="edgeStyle=orthogonalEdgeStyle;rounded=0;orthogonalLoop=1;jettySize=auto;html=1;entryX=0.5;entryY=0;entryDx=0;entryDy=0;exitX=0.5;exitY=0;exitDx=0;exitDy=0;" edge="1" parent="1" source="tRfWzGCdKMlE6d6gyVRb-7" target="tRfWzGCdKMlE6d6gyVRb-9">
          <mxGeometry relative="1" as="geometry">
            <Array as="points">
              <mxPoint x="303" y="210" />
              <mxPoint x="890" y="210" />
            </Array>
          </mxGeometry>
        </mxCell>
        <mxCell id="tRfWzGCdKMlE6d6gyVRb-6" value="[previousOrder] / getOrderContents(previousOrder)" style="edgeLabel;html=1;align=center;verticalAlign=middle;resizable=0;points=[];" vertex="1" connectable="0" parent="tRfWzGCdKMlE6d6gyVRb-5">
          <mxGeometry x="-0.3227" y="1" relative="1" as="geometry">
            <mxPoint x="68" as="offset" />
          </mxGeometry>
        </mxCell>
        <mxCell id="tRfWzGCdKMlE6d6gyVRb-7" value="GettingOrderContents" style="swimlane;fontStyle=0;childLayout=stackLayout;horizontal=1;startSize=26;fillColor=none;horizontalStack=0;resizeParent=1;resizeParentMax=0;resizeLast=0;collapsible=1;marginBottom=0;whiteSpace=wrap;html=1;" vertex="1" parent="1">
          <mxGeometry x="223" y="250" width="160" height="120" as="geometry" />
        </mxCell>
        <mxCell id="tRfWzGCdKMlE6d6gyVRb-8" value="Do / Check if Order is Previous Order or Search Results&lt;br&gt;Do / Press View Order Button" style="text;strokeColor=none;fillColor=none;align=left;verticalAlign=top;spacingLeft=4;spacingRight=4;overflow=hidden;rotatable=0;points=[[0,0.5],[1,0.5]];portConstraint=eastwest;whiteSpace=wrap;html=1;" vertex="1" parent="tRfWzGCdKMlE6d6gyVRb-7">
          <mxGeometry y="26" width="160" height="94" as="geometry" />
        </mxCell>
        <mxCell id="tRfWzGCdKMlE6d6gyVRb-9" value="ViewingOrder" style="swimlane;fontStyle=0;childLayout=stackLayout;horizontal=1;startSize=26;fillColor=none;horizontalStack=0;resizeParent=1;resizeParentMax=0;resizeLast=0;collapsible=1;marginBottom=0;whiteSpace=wrap;html=1;" vertex="1" parent="1">
          <mxGeometry x="810" y="245" width="160" height="120" as="geometry" />
        </mxCell>
        <mxCell id="tRfWzGCdKMlE6d6gyVRb-10" value="Do / Get Order Information&lt;br&gt;Do / Choose Delivery Service" style="text;strokeColor=none;fillColor=none;align=left;verticalAlign=top;spacingLeft=4;spacingRight=4;overflow=hidden;rotatable=0;points=[[0,0.5],[1,0.5]];portConstraint=eastwest;whiteSpace=wrap;html=1;" vertex="1" parent="tRfWzGCdKMlE6d6gyVRb-9">
          <mxGeometry y="26" width="160" height="94" as="geometry" />
        </mxCell>
        <mxCell id="tRfWzGCdKMlE6d6gyVRb-11" style="edgeStyle=orthogonalEdgeStyle;rounded=0;orthogonalLoop=1;jettySize=auto;html=1;entryX=0.49;entryY=0.997;entryDx=0;entryDy=0;entryPerimeter=0;" edge="1" parent="1" target="tRfWzGCdKMlE6d6gyVRb-10">
          <mxGeometry relative="1" as="geometry">
            <mxPoint x="283" y="370" as="sourcePoint" />
            <Array as="points">
              <mxPoint x="283" y="420" />
              <mxPoint x="888" y="420" />
            </Array>
          </mxGeometry>
        </mxCell>
        <mxCell id="tRfWzGCdKMlE6d6gyVRb-12" value="[searchResults] / getOrderContents(searchResults)" style="edgeLabel;html=1;align=center;verticalAlign=middle;resizable=0;points=[];" vertex="1" connectable="0" parent="tRfWzGCdKMlE6d6gyVRb-11">
          <mxGeometry x="-0.4969" y="-2" relative="1" as="geometry">
            <mxPoint x="157" as="offset" />
          </mxGeometry>
        </mxCell>
        <mxCell id="tRfWzGCdKMlE6d6gyVRb-13" value="BeingEdited" style="swimlane;fontStyle=0;childLayout=stackLayout;horizontal=1;startSize=26;fillColor=none;horizontalStack=0;resizeParent=1;resizeParentMax=0;resizeLast=0;collapsible=1;marginBottom=0;whiteSpace=wrap;html=1;" vertex="1" parent="1">
          <mxGeometry x="440" y="250" width="160" height="120" as="geometry" />
        </mxCell>
        <mxCell id="tRfWzGCdKMlE6d6gyVRb-14" value="Do / Add or Delete Order contents&lt;br&gt;Do / Save Order Button pressed" style="text;strokeColor=none;fillColor=none;align=left;verticalAlign=top;spacingLeft=4;spacingRight=4;overflow=hidden;rotatable=0;points=[[0,0.5],[1,0.5]];portConstraint=eastwest;whiteSpace=wrap;html=1;" vertex="1" parent="tRfWzGCdKMlE6d6gyVRb-13">
          <mxGeometry y="26" width="160" height="94" as="geometry" />
        </mxCell>
        <mxCell id="tRfWzGCdKMlE6d6gyVRb-15" style="edgeStyle=orthogonalEdgeStyle;rounded=0;orthogonalLoop=1;jettySize=auto;html=1;entryX=1.022;entryY=0.112;entryDx=0;entryDy=0;entryPerimeter=0;" edge="1" parent="1" source="tRfWzGCdKMlE6d6gyVRb-10" target="tRfWzGCdKMlE6d6gyVRb-14">
          <mxGeometry relative="1" as="geometry">
            <Array as="points">
              <mxPoint x="760" y="287" />
              <mxPoint x="760" y="287" />
            </Array>
          </mxGeometry>
        </mxCell>
        <mxCell id="tRfWzGCdKMlE6d6gyVRb-16" value="editOrder(Order)" style="edgeLabel;html=1;align=center;verticalAlign=middle;resizable=0;points=[];" vertex="1" connectable="0" parent="tRfWzGCdKMlE6d6gyVRb-15">
          <mxGeometry x="0.6612" y="1" relative="1" as="geometry">
            <mxPoint x="62" as="offset" />
          </mxGeometry>
        </mxCell>
        <mxCell id="tRfWzGCdKMlE6d6gyVRb-17" style="edgeStyle=orthogonalEdgeStyle;rounded=0;orthogonalLoop=1;jettySize=auto;html=1;" edge="1" parent="1" source="tRfWzGCdKMlE6d6gyVRb-14">
          <mxGeometry relative="1" as="geometry">
            <mxPoint x="810" y="340" as="targetPoint" />
            <Array as="points">
              <mxPoint x="807" y="340" />
            </Array>
          </mxGeometry>
        </mxCell>
        <mxCell id="tRfWzGCdKMlE6d6gyVRb-18" value="updateOrder(Order)" style="edgeLabel;html=1;align=center;verticalAlign=middle;resizable=0;points=[];" vertex="1" connectable="0" parent="tRfWzGCdKMlE6d6gyVRb-17">
          <mxGeometry x="-0.1899" relative="1" as="geometry">
            <mxPoint as="offset" />
          </mxGeometry>
        </mxCell>
        <mxCell id="tRfWzGCdKMlE6d6gyVRb-19" value="PayingOrder" style="swimlane;fontStyle=0;childLayout=stackLayout;horizontal=1;startSize=26;fillColor=none;horizontalStack=0;resizeParent=1;resizeParentMax=0;resizeLast=0;collapsible=1;marginBottom=0;whiteSpace=wrap;html=1;" vertex="1" parent="1">
          <mxGeometry x="1210" y="245" width="160" height="120" as="geometry" />
        </mxCell>
        <mxCell id="tRfWzGCdKMlE6d6gyVRb-20" value="Do / Get Payment Information&lt;br&gt;Do / Pay for Order" style="text;strokeColor=none;fillColor=none;align=left;verticalAlign=top;spacingLeft=4;spacingRight=4;overflow=hidden;rotatable=0;points=[[0,0.5],[1,0.5]];portConstraint=eastwest;whiteSpace=wrap;html=1;" vertex="1" parent="tRfWzGCdKMlE6d6gyVRb-19">
          <mxGeometry y="26" width="160" height="94" as="geometry" />
        </mxCell>
        <mxCell id="tRfWzGCdKMlE6d6gyVRb-21" style="edgeStyle=orthogonalEdgeStyle;rounded=0;orthogonalLoop=1;jettySize=auto;html=1;" edge="1" parent="1" source="tRfWzGCdKMlE6d6gyVRb-10" target="tRfWzGCdKMlE6d6gyVRb-20">
          <mxGeometry relative="1" as="geometry" />
        </mxCell>
        <mxCell id="tRfWzGCdKMlE6d6gyVRb-22" value="getDeliveryService(deliveryService)" style="edgeLabel;html=1;align=center;verticalAlign=middle;resizable=0;points=[];" vertex="1" connectable="0" parent="tRfWzGCdKMlE6d6gyVRb-21">
          <mxGeometry x="-0.0542" y="2" relative="1" as="geometry">
            <mxPoint as="offset" />
          </mxGeometry>
        </mxCell>
        <mxCell id="tRfWzGCdKMlE6d6gyVRb-23" value="OrderPaid" style="swimlane;fontStyle=0;childLayout=stackLayout;horizontal=1;startSize=26;fillColor=none;horizontalStack=0;resizeParent=1;resizeParentMax=0;resizeLast=0;collapsible=1;marginBottom=0;whiteSpace=wrap;html=1;" vertex="1" parent="1">
          <mxGeometry x="1570" y="245" width="230" height="120" as="geometry" />
        </mxCell>
        <mxCell id="tRfWzGCdKMlE6d6gyVRb-24" value="Do / Update Status for Order&lt;br&gt;Do / Generate and assign Order ID&lt;br&gt;Do / Calculate ETA for Order&lt;br&gt;Do / Send Notification&lt;br&gt;Do / Display Payment Confirmation&amp;nbsp;&lt;br&gt;Message" style="text;strokeColor=none;fillColor=none;align=left;verticalAlign=top;spacingLeft=4;spacingRight=4;overflow=hidden;rotatable=0;points=[[0,0.5],[1,0.5]];portConstraint=eastwest;whiteSpace=wrap;html=1;" vertex="1" parent="tRfWzGCdKMlE6d6gyVRb-23">
          <mxGeometry y="26" width="230" height="94" as="geometry" />
        </mxCell>
        <mxCell id="tRfWzGCdKMlE6d6gyVRb-25" style="edgeStyle=orthogonalEdgeStyle;rounded=0;orthogonalLoop=1;jettySize=auto;html=1;entryX=0;entryY=0.5;entryDx=0;entryDy=0;" edge="1" parent="1" source="tRfWzGCdKMlE6d6gyVRb-20" target="tRfWzGCdKMlE6d6gyVRb-24">
          <mxGeometry relative="1" as="geometry">
            <mxPoint x="1480" y="318" as="targetPoint" />
          </mxGeometry>
        </mxCell>
        <mxCell id="tRfWzGCdKMlE6d6gyVRb-26" value="payOrder(Order, paymentCardNumber)" style="edgeLabel;html=1;align=center;verticalAlign=middle;resizable=0;points=[];" vertex="1" connectable="0" parent="tRfWzGCdKMlE6d6gyVRb-25">
          <mxGeometry x="-0.5889" y="-1" relative="1" as="geometry">
            <mxPoint x="59" y="11" as="offset" />
          </mxGeometry>
        </mxCell>
        <mxCell id="tRfWzGCdKMlE6d6gyVRb-27" value="deleteOrder()" style="edgeStyle=orthogonalEdgeStyle;rounded=0;orthogonalLoop=1;jettySize=auto;html=1;" edge="1" parent="1">
          <mxGeometry x="-0.003" relative="1" as="geometry">
            <mxPoint x="1980" y="320" as="targetPoint" />
            <mxPoint as="offset" />
            <mxPoint x="1800" y="320" as="sourcePoint" />
          </mxGeometry>
        </mxCell>
        <mxCell id="tRfWzGCdKMlE6d6gyVRb-28" value="" style="ellipse;whiteSpace=wrap;html=1;aspect=fixed;fillColor=#1C8AEB;" vertex="1" parent="1">
          <mxGeometry x="1980" y="280" width="80" height="80" as="geometry" />
        </mxCell>
      </root>
    </mxGraphModel>
  </diagram>
  <diagram id="wx_oSWnWtPXLIqoBO1ih" name="Search OBS">
    <mxGraphModel dx="1178" dy="628" grid="1" gridSize="10" guides="1" tooltips="1" connect="1" arrows="1" fold="1" page="1" pageScale="1" pageWidth="850" pageHeight="1100" math="0" shadow="0">
      <root>
        <mxCell id="0" />
        <mxCell id="1" parent="0" />
        <mxCell id="QTm2OHDOqhDagGva98Y2-1" style="edgeStyle=orthogonalEdgeStyle;rounded=0;orthogonalLoop=1;jettySize=auto;html=1;" edge="1" parent="1" source="QTm2OHDOqhDagGva98Y2-3">
          <mxGeometry relative="1" as="geometry">
            <mxPoint x="330" y="330" as="targetPoint" />
          </mxGeometry>
        </mxCell>
        <mxCell id="QTm2OHDOqhDagGva98Y2-2" value="createSearch()" style="edgeLabel;html=1;align=center;verticalAlign=middle;resizable=0;points=[];" vertex="1" connectable="0" parent="QTm2OHDOqhDagGva98Y2-1">
          <mxGeometry x="-0.1571" y="-3" relative="1" as="geometry">
            <mxPoint x="5" y="-3" as="offset" />
          </mxGeometry>
        </mxCell>
        <mxCell id="QTm2OHDOqhDagGva98Y2-3" value="" style="ellipse;whiteSpace=wrap;html=1;aspect=fixed;fillColor=#1C8AEB;" vertex="1" parent="1">
          <mxGeometry x="120" y="290" width="80" height="80" as="geometry" />
        </mxCell>
        <mxCell id="QTm2OHDOqhDagGva98Y2-4" value="&lt;font style=&quot;font-size: 14px;&quot;&gt;Search&lt;/font&gt;" style="text;html=1;align=center;verticalAlign=middle;resizable=0;points=[];autosize=1;strokeColor=none;fillColor=none;" vertex="1" parent="1">
          <mxGeometry x="165" y="228" width="70" height="30" as="geometry" />
        </mxCell>
        <mxCell id="QTm2OHDOqhDagGva98Y2-5" value="" style="endArrow=none;html=1;rounded=0;strokeWidth=3;" edge="1" parent="1">
          <mxGeometry width="50" height="50" relative="1" as="geometry">
            <mxPoint x="550" y="395" as="sourcePoint" />
            <mxPoint x="550" y="245" as="targetPoint" />
          </mxGeometry>
        </mxCell>
        <mxCell id="QTm2OHDOqhDagGva98Y2-6" value="" style="endArrow=classic;html=1;rounded=0;" edge="1" parent="1">
          <mxGeometry width="50" height="50" relative="1" as="geometry">
            <mxPoint x="550" y="245" as="sourcePoint" />
            <mxPoint x="810" y="245" as="targetPoint" />
          </mxGeometry>
        </mxCell>
        <mxCell id="QTm2OHDOqhDagGva98Y2-7" value="getSearchResults(results)" style="edgeLabel;html=1;align=center;verticalAlign=middle;resizable=0;points=[];" vertex="1" connectable="0" parent="QTm2OHDOqhDagGva98Y2-6">
          <mxGeometry x="-0.1837" y="-2" relative="1" as="geometry">
            <mxPoint x="13" as="offset" />
          </mxGeometry>
        </mxCell>
        <mxCell id="QTm2OHDOqhDagGva98Y2-8" value="" style="endArrow=classic;html=1;rounded=0;" edge="1" parent="1">
          <mxGeometry width="50" height="50" relative="1" as="geometry">
            <mxPoint x="550" y="285" as="sourcePoint" />
            <mxPoint x="810" y="285" as="targetPoint" />
          </mxGeometry>
        </mxCell>
        <mxCell id="QTm2OHDOqhDagGva98Y2-9" value="getSearchDistance(distance)" style="edgeLabel;html=1;align=center;verticalAlign=middle;resizable=0;points=[];" vertex="1" connectable="0" parent="QTm2OHDOqhDagGva98Y2-8">
          <mxGeometry x="-0.2986" y="1" relative="1" as="geometry">
            <mxPoint x="29" as="offset" />
          </mxGeometry>
        </mxCell>
        <mxCell id="QTm2OHDOqhDagGva98Y2-10" value="" style="endArrow=classic;html=1;rounded=0;" edge="1" parent="1">
          <mxGeometry width="50" height="50" relative="1" as="geometry">
            <mxPoint x="550" y="325" as="sourcePoint" />
            <mxPoint x="810" y="325" as="targetPoint" />
          </mxGeometry>
        </mxCell>
        <mxCell id="QTm2OHDOqhDagGva98Y2-11" value="getSearchDeliveryServices(deliveryService)" style="edgeLabel;html=1;align=center;verticalAlign=middle;resizable=0;points=[];" vertex="1" connectable="0" parent="QTm2OHDOqhDagGva98Y2-10">
          <mxGeometry x="0.0842" y="1" relative="1" as="geometry">
            <mxPoint x="-11" y="1" as="offset" />
          </mxGeometry>
        </mxCell>
        <mxCell id="QTm2OHDOqhDagGva98Y2-12" value="" style="endArrow=classic;html=1;rounded=0;" edge="1" parent="1">
          <mxGeometry width="50" height="50" relative="1" as="geometry">
            <mxPoint x="550" y="350" as="sourcePoint" />
            <mxPoint x="810" y="350" as="targetPoint" />
          </mxGeometry>
        </mxCell>
        <mxCell id="QTm2OHDOqhDagGva98Y2-13" value="getSearchFood(foods)" style="edgeLabel;html=1;align=center;verticalAlign=middle;resizable=0;points=[];" vertex="1" connectable="0" parent="QTm2OHDOqhDagGva98Y2-12">
          <mxGeometry x="0.065" y="1" relative="1" as="geometry">
            <mxPoint as="offset" />
          </mxGeometry>
        </mxCell>
        <mxCell id="QTm2OHDOqhDagGva98Y2-14" value="" style="endArrow=classic;html=1;rounded=0;" edge="1" parent="1">
          <mxGeometry width="50" height="50" relative="1" as="geometry">
            <mxPoint x="550" y="370" as="sourcePoint" />
            <mxPoint x="810" y="370" as="targetPoint" />
          </mxGeometry>
        </mxCell>
        <mxCell id="QTm2OHDOqhDagGva98Y2-15" value="getSearchDrinks(drinks)" style="edgeLabel;html=1;align=center;verticalAlign=middle;resizable=0;points=[];" vertex="1" connectable="0" parent="QTm2OHDOqhDagGva98Y2-14">
          <mxGeometry x="-0.1664" y="3" relative="1" as="geometry">
            <mxPoint x="11" as="offset" />
          </mxGeometry>
        </mxCell>
        <mxCell id="QTm2OHDOqhDagGva98Y2-16" value="" style="endArrow=none;html=1;rounded=0;strokeWidth=3;" edge="1" parent="1">
          <mxGeometry width="50" height="50" relative="1" as="geometry">
            <mxPoint x="810" y="395" as="sourcePoint" />
            <mxPoint x="810" y="245" as="targetPoint" />
          </mxGeometry>
        </mxCell>
        <mxCell id="QTm2OHDOqhDagGva98Y2-17" style="edgeStyle=orthogonalEdgeStyle;rounded=0;orthogonalLoop=1;jettySize=auto;html=1;" edge="1" parent="1">
          <mxGeometry relative="1" as="geometry">
            <mxPoint x="1000" y="325" as="targetPoint" />
            <mxPoint x="810" y="325" as="sourcePoint" />
          </mxGeometry>
        </mxCell>
        <mxCell id="QTm2OHDOqhDagGva98Y2-18" value="sortBy(Search, sortType)" style="edgeLabel;html=1;align=center;verticalAlign=middle;resizable=0;points=[];" vertex="1" connectable="0" parent="QTm2OHDOqhDagGva98Y2-17">
          <mxGeometry x="-0.1571" y="-3" relative="1" as="geometry">
            <mxPoint x="15" y="10" as="offset" />
          </mxGeometry>
        </mxCell>
        <mxCell id="QTm2OHDOqhDagGva98Y2-19" value="UserSearching" style="swimlane;fontStyle=0;childLayout=stackLayout;horizontal=1;startSize=30;horizontalStack=0;resizeParent=1;resizeParentMax=0;resizeLast=0;collapsible=1;marginBottom=0;whiteSpace=wrap;html=1;" vertex="1" parent="1">
          <mxGeometry x="330" y="210" width="140" height="220" as="geometry" />
        </mxCell>
        <mxCell id="QTm2OHDOqhDagGva98Y2-20" value="Do / Choose sorting filter&lt;br&gt;Do / Type requested search in search bar" style="text;strokeColor=none;fillColor=none;align=left;verticalAlign=middle;spacingLeft=4;spacingRight=4;overflow=hidden;points=[[0,0.5],[1,0.5]];portConstraint=eastwest;rotatable=0;whiteSpace=wrap;html=1;" vertex="1" parent="QTm2OHDOqhDagGva98Y2-19">
          <mxGeometry y="30" width="140" height="70" as="geometry" />
        </mxCell>
        <mxCell id="QTm2OHDOqhDagGva98Y2-21" style="edgeStyle=orthogonalEdgeStyle;rounded=0;orthogonalLoop=1;jettySize=auto;html=1;" edge="1" parent="QTm2OHDOqhDagGva98Y2-19" source="QTm2OHDOqhDagGva98Y2-22">
          <mxGeometry relative="1" as="geometry">
            <mxPoint x="220" y="115.00000000000011" as="targetPoint" />
          </mxGeometry>
        </mxCell>
        <mxCell id="QTm2OHDOqhDagGva98Y2-22" value="Do / Choose Distance" style="text;strokeColor=none;fillColor=none;align=left;verticalAlign=middle;spacingLeft=4;spacingRight=4;overflow=hidden;points=[[0,0.5],[1,0.5]];portConstraint=eastwest;rotatable=0;whiteSpace=wrap;html=1;" vertex="1" parent="QTm2OHDOqhDagGva98Y2-19">
          <mxGeometry y="100" width="140" height="30" as="geometry" />
        </mxCell>
        <mxCell id="QTm2OHDOqhDagGva98Y2-23" value="Do / Choose desired delivery services&lt;br&gt;Do / Choose desired foods&lt;br&gt;Do / Choose desired drinks" style="text;strokeColor=none;fillColor=none;align=left;verticalAlign=middle;spacingLeft=4;spacingRight=4;overflow=hidden;points=[[0,0.5],[1,0.5]];portConstraint=eastwest;rotatable=0;whiteSpace=wrap;html=1;" vertex="1" parent="QTm2OHDOqhDagGva98Y2-19">
          <mxGeometry y="130" width="140" height="90" as="geometry" />
        </mxCell>
        <mxCell id="QTm2OHDOqhDagGva98Y2-24" value="" style="endArrow=classic;html=1;rounded=0;" edge="1" parent="1">
          <mxGeometry width="50" height="50" relative="1" as="geometry">
            <mxPoint x="550" y="390" as="sourcePoint" />
            <mxPoint x="810" y="390" as="targetPoint" />
          </mxGeometry>
        </mxCell>
        <mxCell id="QTm2OHDOqhDagGva98Y2-25" value="getSortType(sortType)" style="edgeLabel;html=1;align=center;verticalAlign=middle;resizable=0;points=[];" vertex="1" connectable="0" parent="QTm2OHDOqhDagGva98Y2-24">
          <mxGeometry x="-0.1837" y="-2" relative="1" as="geometry">
            <mxPoint x="13" as="offset" />
          </mxGeometry>
        </mxCell>
        <mxCell id="QTm2OHDOqhDagGva98Y2-26" value="createSearch(results, distance,&amp;nbsp;&lt;br&gt;deliveryService, foods, drinks)" style="edgeLabel;html=1;align=center;verticalAlign=middle;resizable=0;points=[];" vertex="1" connectable="0" parent="1">
          <mxGeometry x="905.9999999999998" y="306.0000000000001" as="geometry" />
        </mxCell>
        <mxCell id="QTm2OHDOqhDagGva98Y2-27" value="ResultsBeingSelected" style="swimlane;fontStyle=0;childLayout=stackLayout;horizontal=1;startSize=30;horizontalStack=0;resizeParent=1;resizeParentMax=0;resizeLast=0;collapsible=1;marginBottom=0;whiteSpace=wrap;html=1;" vertex="1" parent="1">
          <mxGeometry x="1000" y="285" width="140" height="70" as="geometry" />
        </mxCell>
        <mxCell id="QTm2OHDOqhDagGva98Y2-28" value="selectSearchResults(results)" style="edgeStyle=orthogonalEdgeStyle;rounded=0;orthogonalLoop=1;jettySize=auto;html=1;" edge="1" parent="QTm2OHDOqhDagGva98Y2-27" source="QTm2OHDOqhDagGva98Y2-29">
          <mxGeometry x="-0.003" relative="1" as="geometry">
            <mxPoint x="320" y="50" as="targetPoint" />
            <mxPoint as="offset" />
          </mxGeometry>
        </mxCell>
        <mxCell id="QTm2OHDOqhDagGva98Y2-29" value="Do / Display Search Results&lt;br&gt;" style="text;strokeColor=none;fillColor=none;align=left;verticalAlign=middle;spacingLeft=4;spacingRight=4;overflow=hidden;points=[[0,0.5],[1,0.5]];portConstraint=eastwest;rotatable=0;whiteSpace=wrap;html=1;" vertex="1" parent="QTm2OHDOqhDagGva98Y2-27">
          <mxGeometry y="30" width="140" height="40" as="geometry" />
        </mxCell>
        <mxCell id="QTm2OHDOqhDagGva98Y2-30" value="ResultsSelected" style="swimlane;fontStyle=0;childLayout=stackLayout;horizontal=1;startSize=30;horizontalStack=0;resizeParent=1;resizeParentMax=0;resizeLast=0;collapsible=1;marginBottom=0;whiteSpace=wrap;html=1;" vertex="1" parent="1">
          <mxGeometry x="1320" y="290" width="140" height="70" as="geometry" />
        </mxCell>
        <mxCell id="QTm2OHDOqhDagGva98Y2-31" value="Do / Activate Floating View Order Button" style="text;strokeColor=none;fillColor=none;align=left;verticalAlign=middle;spacingLeft=4;spacingRight=4;overflow=hidden;points=[[0,0.5],[1,0.5]];portConstraint=eastwest;rotatable=0;whiteSpace=wrap;html=1;" vertex="1" parent="QTm2OHDOqhDagGva98Y2-30">
          <mxGeometry y="30" width="140" height="40" as="geometry" />
        </mxCell>
        <mxCell id="QTm2OHDOqhDagGva98Y2-32" value="" style="ellipse;whiteSpace=wrap;html=1;aspect=fixed;fillColor=#1C8AEB;" vertex="1" parent="1">
          <mxGeometry x="1360" y="490" width="80" height="80" as="geometry" />
        </mxCell>
        <mxCell id="QTm2OHDOqhDagGva98Y2-33" value="deleteSearchResults()" style="edgeStyle=orthogonalEdgeStyle;rounded=0;orthogonalLoop=1;jettySize=auto;html=1;exitX=0.443;exitY=1.05;exitDx=0;exitDy=0;exitPerimeter=0;" edge="1" parent="1" source="QTm2OHDOqhDagGva98Y2-31" target="QTm2OHDOqhDagGva98Y2-32">
          <mxGeometry x="-0.003" relative="1" as="geometry">
            <mxPoint x="1470" y="429" as="targetPoint" />
            <mxPoint as="offset" />
            <mxPoint x="1290" y="429" as="sourcePoint" />
            <Array as="points">
              <mxPoint x="1400" y="362" />
            </Array>
          </mxGeometry>
        </mxCell>
      </root>
    </mxGraphModel>
  </diagram>
  <diagram id="SO0lnHtL1-sAeaOmtC44" name="Create Account OBS">
    <mxGraphModel dx="1178" dy="628" grid="1" gridSize="10" guides="1" tooltips="1" connect="1" arrows="1" fold="1" page="1" pageScale="1" pageWidth="850" pageHeight="1100" math="0" shadow="0">
      <root>
        <mxCell id="0" />
        <mxCell id="1" parent="0" />
        <mxCell id="q8MSLmnooBdz0madkf1B-34" value="" style="shape=image;verticalLabelPosition=bottom;labelBackgroundColor=default;verticalAlign=top;aspect=fixed;imageAspect=0;image=data:image/png,iVBORw0KGgoAAAANSUhEUgAAAigAAAEiCAYAAADTfil+AAAgAElEQVR4nO3df1xU953v8Tc/FXUQMIKAIIpJJBEFU7WVNKaAcW2azZpmt+aaWJot6d7du7u91W3X29rels26yUPvY2+329wNbUptrO62G7rNJq4VyK9iK6aIQsQmogjyMwaQAfk9c/+YYZiBmQHkxxzg9Xw88nh4fn4/50yS8/Z7vuccP6vVahUAt/oHelXRUKxmc40u3zinW32dvi4J8KkFQQu1+o5URZritTY6TYEBwb4uCbOUHwEFGKnlVqN+Wf59XWz8rQL8AtU30CNZJfn5ujLAx+z/HQQFzNOAtV/3LPu4Prv+yzLNj/B1ZZhlCCjAMP9Z8S/6bfVr6u7tJJAAo7FK84MW6IE7/1gPrdnj62owixBQALv+gV798Df/S9UtF209JgDGLChgntZEbdLnN/9vX5eCWYKAAth97+2/UvVHF2XrwwYwXv5+AborcoO+uOUffF0KZgF/XxcAGMG/lR7S9db3RTgBbp/FOqCqGxf072X/6OtSMAsQUDDn1d+8rPN1b6nf0ufrUoAZr2+gR6W1haq/ednXpWCGI6BgzvtJSY56+m/5ugxg1ujpu6VfXPier8vADEdAwZxWf/Oy2rtbfF0GMLv4SXWtH6jlVqOvK8EMRkDBnHb++lvqHejydRkwhExl7SzUoZ05SvV1KbNAv7VPFfXFvi4DM1igrwsAfOm9pt+KB9kmUWimsjY9qbWmONu0+bQKSw7oRLtvy8L0G7AM6Nz1Qj2w+rO+LgUzFD0omNPMXTd8XcLsEZujQxn7h8KJJJm2KCNjanskopPydGhnob6alDiFreB2dPS0+boEzGD0oGBO6+zlr/aTI1NZm7bY/lh/UIfPFKhBUnRstrYnxfu0MvhObz+3T3H7CCgAJi52q9ZKkk7rqD2cSFJDXa7y6iQpUTsyX1SGjqvQnKaMmDip/qD2nSmQQjO1Y9OTyvBwWyg1KU/b1sQpcrAtx3L7Pk222ZFrXtShNVJFSYbyzN73Kcl+O2q/1pokqVYVlxgvARgJt3gATFh0qD0I1L+lc95WNO2yhROHTGVl7B8KEtKw20KZWu8cTgaXb8pWtMdGRtunJCVqhyOcSFKc1q7ZZQ9ZAIyAHhQA06ri0jPKq6yyTcTm2EKB+bgOF+SqQYlK3fyidsds0fpY6VzdVZ0sOaiTdfZemdBsZWXs0lpTvJapSicKMlSWlKe9a+LUfOkZPV9ZZRsL43WfkkLTlWySpNM6WnhA59pt+/5qxi7XMATAZwgoACasob1WUpwUs1WpKvDSi1Krproqx5Sj58W0S3t37nKzfpUUmqWnkvYr0uRmsRuj71OSKd4WROrfsoUTSWq/qmaJgAIYBAEFwMTVvaUKbdFabdHuzZlqHByHEpqprE1bdb4gz+1mjmDj6O0YJjZHe9dsUXP9Qe0rKBjqQfFSyqj7lCRzjZq1RZExW5UaWqBz7VJ06ErCCWAgBBQAk6BAJy89qbVr4qSY/dq7c7/TstM672mzwWAzorfjtI7mH3D0xETG7Nchl32ONDRI9uDo+2wvUrl5lzJMW7Q7o1C7x3m0AKYeg2QBTIqGyiwdLjmtZrPTTPNpFZbkebnlU6C8woOqMNe6X1yXp6P1TsvMp1VRP7zdl1XhaLNWTeZR9ilJqtKJkoMu21VcOqhCs5dNAEwrPyuv0cQcti8/w9clALPWwuBQffvhfF+XgRmKHhQAAGA4BBQAAGA4BBQAAGA4BBQAAGA4BBQAAGA4BBQAAGA4BBQAAGA4BBQAAGA4BBQAAGA4BBTMacEB831dAjBr+fkH+LoEzGB8LBBzWu9Atw7tLPR1GcCs03KrUS+88xVfl4EZjB4UAABgOAQUAABgOAQUAABgOAQUAABgOAQUAABgOAQUAABgOAQUAABgOAQUYKzqD2pf/kFV+Gr7yWCAGipKMrQvP0P78p9RodmHhcwCFSUZ2ldy2tdlAFOCgAJMk4rrBVLsVq31dSHTqlaFhU4XUfNxnaxL1I7MQh3a+aIyTMOWT3X7M95sOx7AMwIKMC1O63xdonYkbfF1Ib5lvqoGrVSUafJ3TW8CMLvwqntgGjRfytO50HR9dQouzMYWp4yMQmU4zwpdqUhvy6e6/Rltth0P4NmUBZRrH3XrVu+AOnssarjZo9WRIZKkmLB5WhxCLsIMYD6uwwW5apAkJWpH0sphK9SqsDBLJ9oHpzOVtXO/m1s4tSqvq1J07AGnC/Mw9Qe170zB0HRotr6asUuRXtuwLWtMypHOHNC5wTozX1TGYBAa9RiGVJRkKM882K5zXbK36a2W0zqan6dlm9NVdiZXDU51VJRkKE85ytIB5dXZtnw+P1eKzdGhTVscyw9tGuxdGtZOrJdlylTWzifV5Jh3QPvyXbdx3f9ov9kYzukInvZ5WkfzD0ibnfc1vF53+/Ze48jzBcxOk5IU+gasere6XWerzTpX06G+AYsWBNu/YulnVXevVfODbHeT+ges6h2wKHxhkLYkLtaWxFCtWMIXZWE0tSosyVWD40Jnv9goc2h5YZZOmHJ0KMPpQpivkSHFXKyy9kxtz4hz35T5uA6fuaodmYXuL1RObTRfekbPFx53CRHnzuTZxnQMhoGS40oeDDdej8HV2uWZ0pkilZt32euoVWFlgaKT8obCiddaqnTizEpl7Sx0O85m7aZCHao/qH2VK11D0PDz7ua8Hq0v1O6YwfBQqEMxGjrnJVt1KKNQUaNeuMf+m3k+p6Pvc+i8xNv39ZaydhZqt/385+UXKHWz7RhG7tvLMRJIMMdMaAzKu9Vm/f3r1frTvEq9VNyokqvt6huwSJJu9Q7Y/umxyGK1OqZ77ctbO/v02oUbeva1a8r+8SX9y1t1utnVP/EjAiaDuVhl7c5jRrZo92anC3v9yzrRnqksp4vG2k05SlWBzte77qqiMlcN3gbHmuK1TFUqq6sdpQYpck2WUtuLVO709Evq5qG/ga9dnim1X1XzWI5huJgntSPUqQ779imxceOoxV0P0ji4aWftpkLtjpEGb2/sjhlaPTI0UTLX2I53NOP4zTye0zHUO/y8DJ2TLVofKyk2x3EMI/c9wWMEZpHb6kG53NylHxU36MOOXnV2W+TnJ3X1DtxWAbfs273zwU29e82sj69arCc2RQ71wAC+YB/MuX3CY0ZO63ydlLrZ299+t2j3zhwdzc/SvkrJ0e0vSarSiYIMnRi2RapZ0mi1jfsY4pQcm6gTdcVqXrNLqitSQ2i6njJJMk+wlrEarWaXW1Z2oemT1Pjt8nJebochjxGYfuMKKB+a+5T7Tp2qb3TrVq+tJ8TPb/KK6eq16O33W1Vy9aa23xuhxzZ4vGMPTC3TSkWrSE1mae1ELr71b+mcMpUVM9qKW7R7Z6F2S7ZxHwXPSJvTNfr4By9u4xgiY9MVXVmkcnOaVFel1KQXnW5rTKCWsfJWs/3CvWxzofbaz2fzpWf0fN0U1jMmns7LaR0d764Me4zA9BvzLZ5rH3XrO69e1Xt1txzhZCoMWKTOHoteu9CiZ1+rVt+AdcraAjwaftvFfFyHnQexxmxVqgqU5/RYa0XJAZ0LzdY2pzBScb1A0UlPju+2h2mloiXJlKaU0CqdqLzNR2dHOwa32+zS9tgqlVW+rLL2TK0fPJaJ1jJWbtqxjUFxt/Jpnaqscp3l7VbIGH+zidY7udwcIzBHjKkH5dcftOnomSaZuwcmtcfEm55+i95v7NLf/nuV/nbHCi01BU1Pw4AkaYt2Z2brcMHgbZdMZWVm62TB1aHlO3OkfPtTI5LTkzd29peSpSR5GBw7aPgTPJJSN9sHzGbkSYVZQ23IXovbp4XGewzurV2eqbwzBVJsjlMbccqYUC1jFaeMjBw1Op/X2Bz7gNFdeiqpSM+fyRh6uiYpU7L3LqxNylZ0Qa7LE0KuxvCb3Va9ns7L1vHvzuT9GIG5xM9qtXrtovjZu80qqGxVZ8/tjTGZDOELArVvezxP+2DS7cvP0KGdhVOyb1vXfPoEL4DAzNRyq1EvvPMVfX37T31dCmYor7d4fnn+Q/3qYotPw4kktd7q13MnavShuc+ndQBjZ3v3SWoS4QQAbofHgFJaY9ZrF1rUNYXjTcajvbtff/96teOpH8DYRj4uCgAYO7cBpb6tRz98p8HnPSfDtXb26x9O1Pi6DAAAMMVGBJS+Aaueff2aIV+a1m+xqralW0d+0+jrUgAAwBQaEVCOlTTplsF6Tpz1DVh1+vJN1bf1+LoUAAAwRVwCys2ufr3zQZvh3z1i7h5Q3umG0VcEAAAzkktA+fnvPlRvvzEGxXrj5ydV3+jRtY+6fV0KAACYAo6A8qG5TyVX2zVg/HwiSersGdDRM4xFwTSqP6h9+QdV4avtAWAOcQSU4stt6u039q0dZ35+0uWmbkMO5gXcqbheIHn7qvGMUKvCwgztK5niV94DmPMcAeVstVl9M6X7xM7fXzpf2+HrMoAxOK3zdYnakeTtq8aYiSpKbj+w3c62E2kPmEn8JelW74DqWnt9Xcu4dfVa9OvLbb4uAxhV86U8nQtNV/JUfgl4WtheQDfyOzcAMLkCJendarMCA6QZMD7WhZ+f9EFTt/oGrAoKmKavGGLuMB/X4YJc2Z4XS9SOpJXDVqhVYWGWTrQPTnv6cJ7ttffRsQc8v/Z++AcDQ7P11Yw0lRdmqTHJ6Y209Qe174zs7dSqsDBH2pSlxoIDQx+Xy3zR9qHBUWs8raP5eVq2OV1lZ3LVYN82qjJDeeZhH9FzalclGcqT08f43Na+S5FjPj9jqXXYMpePAY5jmZt9ej+/WWpMypHOuDu/zvu2f4DQ7UcK3Z2jTKWqQOfcbuupZk/txY1yHJ5qmOiHEoGpFShJZbUd6u6bYenELihAuvZRt1ZHhvi6FDhrLtPBCwnav65a2afClLs7wdcVjVOtCkty1eC4aJzW0fwDkjKHlhdm6YQpR4cybBekipIM5eVr5EXYXKyy9kxtz/DwVWPzcR0+c1U7MgudgoWtjdFV6URBnnZkFuqQyf6BwoKDinK+oDnV2HzpGT1feNzpwlSlE2dWKmtn4VDNyzOlM0UqN+8auhBXFig6KU9rJddBvl5qH73tkes3JhXav1xsP58lWx0X4OHn+mh9oXbHuP8dvC1z+xt5ce7M0Pm11XRcyRm7FGnvTYoaHtiG83iO9mv9iG29nYctHtobw78nHmsAjMtfklo6Z+5H+Kzy04fmmXd7airUFuQr/VDZmC5rU6341FUlrAuTIhOU3lCtYh/V8Yt36/Xjd2rUdmuc/46bi1XW7jxmZIt2b84cWl7/sk60ZyrL6aK0dlOOUlWg8/Wuu6qozFWDt8GxpngtU5XK6m7vl0vdPNRjErkma6iGEcdgX95epHKz8/bDLtYxT2pHqFM99v2kxLoJWJ5qH2PbQ0Z+uygyNFEy16jZzb7WbrKv623ZOH4jb5zP79rlmVL7VTWPffNx/r5ezsN42pxQDYAxBErSzS7jvjl2NH0D1jnwJE+bjh0qU/y+B5XmZZ1fl4VrW3SpXi5P0f7kaSxvRH3Vers0XA/slqQw3Z/SqpfLpbRprcmmb8Cq18sadaq8WduSI/XofdEKWxA0+obmq2rQSm2f8N82T+t8nZS62duYjS3avTNHR/OztK9SGnmbZiKqdKIgQyeGzU01S/K4/zglxybqRF2xmtfskuqK1BCarqfcru+h9ttp2+WWml1ouvffYtJ+p6k0zt/X03mYzhoAAwiUpI7umXuB7x+wqPWWMQNW8dGXdKDU9udtOzboSlObVpVe0akN6SranaDagnx9/kSrbYUN6Sra1qbs50pVNbgD+3rFR19RboOkvVeUuOMxfVNvuG63O0EqL1NRSopyo6T0C9Xan5zgvo6sp/XABdfp/cmu6zhqOSJ9c1+K4iQVH81XzbadekJlyj5lPw77ujkqcqkvd12brkSH6Un77uKiwnWlqU1KDpv8kzxGfQOW8QUV00pFq0hNZmntRP4nXv+WzilTWaN+1XiLdu8s1G7JNlag4Bkp88D42zPXqFGJSnHUfHsXosjYdEVXFqncnCbVVSk16UUvYxXc1L45fXxt2y/KyzYXaq/9XDVfekbP18n7bzFZv9OUc/f7vqio4at5Ow9TVAMhBUYVKEldM3T8iSRZrdLvrnykQKuxblN9Ovj3OqB0FR22B4XmMmU/Jz1w+Gntt09/pynVsbz4aL6OaadyD6fY92DrlShWgtJ2P6bsBnsPRXOZsk8N2645QfEXWpW+LUyKTFH2Sft2klT+pmsd5W8q3Xl6cJ2GDfrx4cEw8pIOXtjg+eBKW5XwtadVFNmmY4feUM0ep/okqVlSdJicbwhUNbXpYl2A3rve7n6fU+Rinev9hOFBxSOnLvGMNXH2e/gFcoxBidmqVB1wjA2QpIqSAzoXmq2vOoWRiutDYzfGzLRS0boqKU5RJunE9dPaHWMfB+Ncg925M89omf1C01xX5NSjkKaU0FydqDytjPE+dWPape2xuTpZ+bLUnqntowasYbWbJtC2JOm0TlVW2XoO3OyroiRD55cXaneMt2Wj/UZjO79jYq5Rs7aMbcCp4/cdy7ZO58Fje7dxHMNrAAwo0NcFTJSfn1X+fsZ7gqeuuU2JUcN6DKLDFD/456Y2VZWWKr10aPG2dW06dsTeWyJJWqWc4Tt2u121qktbdar0JeUOzit/UGnJUm1TqxKjUhzrDp92zEtJcQSK+MEeD3no8YheqfsjJSlM8dFSjcezYFwL5wVoqSlYuuFpjS3anZmtwwWDXeKZysrM1smCq0PLd+ZI+fanKaSRT0WYj+tkXaJSkjwMjh00/OkKSamb7YMZN+Uo1dGGrYbGgqvD1s1SY0GG9kmy9VoMjimJU0ZGnlSYNVSj7PsZwyDRtcszlXemQIrN8byut9rH07Zpl55KKtLzZzKGnpZJypTqBo8jR43O5zo2xz6I1Nuy0X+jtWM4v6NZm5St6IJcPZ+f6/4pHm/naMS23s6D5/ZGPQ5vNQAG5We1Wq3ZP740o3tRHl53h57YZLCH5crfVPqFBNvtF8nWg+J0y2TEcvu87KYU5WaGyXVch62nQnt26omm0baztzX45Mzwdjy06zyv+OhLejtqg66UDdbr1L7K3Nz6+ZR0xL480v2xutQ3jX52pk4/Lxn6v3vYgiA9el+0tiVHKijAX/vyM3RoZ+GUtG3rmk+fwkc53TwmCxhEy61GvfDOV/T17T/1dSmYoQIlKXxhoLraZuaTMMGB/oo0jWHQ43RLflA5F15S+l7b5LYdG7wul8KV/bVUrcp7ReknbNOJ0eHKkmTrqWjVgedeUtGOx5SjV1y2S4yW0vc4Xfwjw7Sq9JyObUvQE8PryHpaOXKd3j+8lg3pKspMUHHTS/r83tKhNjwerGt9uZlhWtVQrRpJcbL10Kwa3ps0zYYHk6lne/eJ97EbAABP/KxWq/XvX6/We3W3ZMA7JaNaMM9fz3wyVh9LoK/SSByDaiPH8gTS1DlV3qy+AYvHYDKVPShTjx4UGBc9KJioQElasjBoRoYTSZJVClsw44fSzDpp68KVd6FNT6yrVlF0gmNszHTzOhB2xrO9MwMAZiN/SVq3fJFCggN8XcttsVilFUvm+7oMDJf8oG3MSWTKDHyLLADA1/wlaX3cIlksVl/XchusWrNsId/hAQBglvGXpAXBAYqLmOfrWsYtJDhQaatDfV0GAACYZI5Rg5+8M0zBgdPxdMPksVisWh+3yNdlAACASeZIJB9LMGlanr6cJFarlBg5Xwtm6NgZAADgmSOSLA4J1MdXLZ4xISU0JEC7Ny/zdRkAAGAKuMSRPZ9YppAg4/dIBPhLH0sI5ekdAABmKZeAEhTgp0fWL9E8g49FCQ701+P3LfV1GQAAYIqMSCIP3bvE0C8+WxAcoIfuidDiEOPWCAAAJmZEQAkK8NPf7lihcAOGlAA/aXVkiP74Y7P57aAAAMDtvZylpiDt2x4v03xjjUeJXxKi/7ltlE/XAwCAGc/jYJMVS+Yra0u0FhkkpIQvDNT+T8fz1lgAAOYAr6NhN68K1eMblso033e3ewL9/bTUFKRvfmYl7zwBAGCOGPVxncx7IrT3oTiF+iCkBAf4KX7JfD27c5WWmoKmvX0AAOAbY3qeeHVkiL796EpFL543bS9yCwkO0CcSw/SdR+k5AQBgrhlz3FhqCtK3H03QA3eFa+G8qQsM8wL9ZZofoKfTlin7gegpawcAABjXuO7bLAgO0J/eH60/XH+HjpU0qaKuU7d6ByankAB/LQj218PJEXp43R2Tsk8AADAz3dbAkqWmIP1VxnJd+6hb/1Xxkd6tNsvPz089/RYNWKxj2ofVKoUE+8tikRYvCNT2e8P1wF1h3M4BAAC3F1AGrVgyX1/aGqsvbZWufdSts9Vmnasx63prtwYs0vwgf/n7DT0W3N03IItVMs0PUFzEPN2/Okzr4xbxVlgAAOBi0pLBiiXztWLJfJdv5Hxo7tONjl7H9OrIBbzHBAAAjGpKuy6WmoJ4PBgAAIybsT9bDAAA5iQCCgAAMBwCCgAAMBwCCgAAMBwCCgAAMBwCCgAAMBwCCgAAMBwCCgAAMBwCCgAAMBwCCgAAMBwCCgAAMBwCCgAAMBwCCgAAMBwCCgAAMBwCCgAAMBwCCgAAMBwCCgAAMBwCCgAAMBwCCgAAMBwCCgAAMBwCCgAAMBwCCgAAMBwCCgAAMBwCCgAAMBwCCgAAMBwCCgAAMBwCCgAAMBwCCgAAMBwCCgAAMBwCCua0wIBg9Q/0+roMAMAwBBTMaaZ54WrvafF1GcCs093XofmBC31dBmYwAgrmtKWLYtVsrvV1GcCs09LZpPCFkb4uAzMYAQVz2oqIe3Wt5T1flwHMOpVNv1VS1Md9XQZmMAIK5rTkmPtVUV/s6zKAWef95t/p7qiNvi4DMxgBBXNazOLVCl8YSUgBJlFFfbGiF69UxIJlvi4FMxgBBXPeHyR9QScr83xdBjAr9A/0qvD9n+oPkr7g61IwwxFQMOfFLF6tDXGZyj//XV+XAsx4r5z/ru6Ly1TM4tW+LgUzHAEFkPSpuz6nvoFeFVx62delADPWq+UvaNG8MN2fuNPXpWAW8LNarVZfFwEYRf6F76qvv1ePJP+ZQoIW+bocYEbo6uvQz84dVnToSm1bs8fX5WCWIKAAw/y6Kl9vXf6Z7ovLVNqqP5JpfoSvSwIMydzdouIrv9Dvagu0456ntSEu09clYRYhoABudPV16K0P/k1nrp3QouAwJcfc7+uSIKmjK0iLQvp8Xcac12fp1aXGEnX0tmnzih3aeuef0OOISUdAAUZRf/MyjyEbxA8LkvSnmZW+LmPOCwwI1pqojQyExZQioACYMT73TyX617/c5OsyAEwDnuIBAACGQ0ABAACGQ0ABAACGQ0ABAACGQ0ABAACGQ0ABAACGQ0ABAACGQ0ABAACGQ0ABAACGQ0ABAACGQ0ABAACGQ0ABAACGQ0ABAACGQ0ABAACGQ0ABAACGQ0ABAACGQ0ABAACGQ0ABAACGQ0ABAACGQ0ABAACGQ0ABAACGQ0ABAACGQ0ABAACGQ0ABAACGQ0ABAACGQ0ABAACGQ0ABAACGQ0ABAACGQ0ABAACGQ0ABAACGQ0ABAACGQ0ABAACGQ0ABAACGQ0ABAACGQ0ABAACGQ0ABAACGQ0ABAACGQ0ABAACGQ0ABAACGQ0ABAACGQ0ABAACGQ0ABAACGQ0ABAACGQ0ABAACGQ0ABAACGQ0ABAACGQ0ABAACGQ0ABAACGQ0ABAACGQ0ABAACGQ0ABAACGQ0ABAACGQ0ABAACGQ0ABAACGQ0ABAACGQ0ABAACGQ0ABAACGQ0ABAACGQ0ABAACGQ0ABAACGQ0ABAACGQ0ABAACGQ0ABAACGQ0ABAACGQ0ABAACGQ0ABAACGQ0ABAACGQ0ABAACGQ0ABAACGQ0ABAACGQ0ABAACGQ0ABAACGQ0ABAACGQ0ABAACGQ0ABAACGQ0ABAACGQ0ABAACGQ0ABAACGQ0ABAACGQ0ABAACGQ0ABAACGQ0ABAACGQ0ABAACGQ0ABAACGQ0ABAACGQ0ABAACGQ0ABAACGQ0ABAACGQ0ABAACGQ0ABAACGQ0ABAACGQ0ABAACGQ0ABAACGQ0ABAACGQ0ABAACGQ0ABAACGQ0ABAACGQ0ABAACGQ0ABAACGQ0ABAACGQ0ABAACGQ0ABAACGQ0ABAACGQ0ABAACGE+jrAgAAgDH19ltUWd2h3n6LLl4zS5Kq6m9pUUigosKDFRzor3tWmBQU5Kd7VpgmtW0CCgAAcGgx96m4/COd/f1Nna1s0z0JJgUF+ilpxSJJ0vaPLVVHV78aW3vU2T2gI7+6rt4+i2qau5SWHKGNdy9WWnKEggMndpOGgAIAAHT+cruO/Oq6appuKS15ibZ/bKm+84W7x7x9R1e/istbVFzRquePVelTG+7QnoeWa1nEvNuqh4ACAMAcdrmuU0d+dV2dXQPa89ByrV8delv7WRQSqO2bIrV9U6Qk6WRJs/a/WKmNSWHalR6rCFPQuPZHQAEAYA7q7bfoB6/V6Pzldu15aLnSkiMmdf/bN0XqUxvu0KvFTdr7z+/psQeW6ZEty8a8vZ/VarVOakUAMEU+908l+te/3OTrMoAZr6OrX9/60fvacm+4Prs12uN6g+NRLl7r1JX6TklSbXOX5gf7a2mY7dbNhrsW667lC72OO+no6tcPXquVJH358ZVjqpGAAmDGIKAAE1fT3KVnf/KB/vrxlW6fvOntt+hkSbNeebtRTa09kvzU09cvyc/jPhfMD1D/gFX3JJj02P3LPPbGvHq6UcUVrfrGU3dqUYj3mzjc4gEAYI44f7ldP3itRt/+wt1uB6/m/7pBR/7runr6rOrpG3Ba4jmcSNKtbtu6ZR/c1AfXOxX6y2v6m88ljhjP8siWZVoWMV/f+v8qAAIAAAtdSURBVNH7+vYX7vIaUggoAADMAY0tPfr+f1Tr8J/fMyIY1DR36W++f1G3eiy61dM/oXY6u/rV2dWvb/3o91oZs0A5T9/t0t7GNWFaGBKgb/3ofR18Zo3H20K8SRYAgFmuo6tfz/7kA33dza2V37zXqq/880XdaO+dcDhxZu7q18WrZv3Z4XI1tvS4LLtnhUmf+USknj9W5XF7AgoAALNYb79Ff/eTD/TFh+MVHxnisuznb9XruWOX1WrunZK2+y1WNbR06y/+sVyX6zpdln0q9Q4lxizQD16rcbstAQUAgFnsyMnrWp8YOmI8yM/fqtfLBfUy35q8XhNP2jr6tD/30oiQ8kRGrC7XderspbYR2xBQAACYpVrMfXrj3I0RjxKfv9yunxbUydzZN321tPfqwA9/rxaza5tffDjebS8KAQUAgFnqyMnr2pUe4zIQtbGlR9858r5udk59z8lwzW09+ur/u6jefotj3urYhYqLDNEb5264rEtAAQBgFrpc16nKa+YRb2/d98JFtXVMX8/JcDVNXfpefrXLvD//owT94LUal+BCQAEAYBY6XlSvXekxLvOKy1vUPg1jTrwZsFj15rkbLrd6IkxB2rgmXCdLmh3zCCgAAMwyvf0Wnb98UxvXhLnMf+GX19TZ5duAIkndvRbl/Vety7y0teEqrmh1TBNQAACYZc5fbldi7EKXd54YofdkkLtelPWrQ1V5rcNxm4eAAgDALFNc0aq0teEu8wpKb6jzlu/GngxnsUpnK4d6TIID/bVxTZiKy1skEVAAAJh1zl5q1cY1QwGlt9+idy+1Sn7ev6kznbp6BvTqb5pc5m28e7HO/v6mJAIKAMw8zWU6WNAmNZcp+2j16Otj1mnz0hPS0dWvjq4Bl48Bnr/cLj9/413yqxtuqcNpTExi7EJV2V/mZrxqAWBc2nTsUL6ONXtaXq2De99U8QRbqS3IV/qhMtWOvuqUKz51VQnrwqTIBKU3VE/42DDz/I+88/rxOzVug0qLuU8RpiCXeTVNXS6P8BpFQIC/y3d6IkKD1dJue+0+AQXAHNemY4dGCzBt+nVZuLZFl+rl8mkqy6lt1/qq9XZpuOIjJSlM96e06u1prwm+1jdg0etljW6DSmt7nyJCg13Wv9Heq74+4wUUq6TWYY8bDw6cDfSwDQAYWvHRl3SgVJLClRgtpdvn1xbk6/Mn7APvNqSraPfQNiOXJaj46CvKbZC094oSdzymb+qNEeuovExFKSnKjZLSL1Rrf3KCmzqkbVlP64ELrtP7k13X0YZ0FW1rU/YR6Zv7UhQnqfhovmq27dQTKlP2qTatKr2iU/Z1c1TkUl/uujZdiQ7Tk/bdxUWF60pTm5Ts+jgp5obBoHKqvFnbkiP16H3RamzpVpTT7R3J9vZYWa2GGoMiSRaL1dFjMmhZxDw1tvQQUADMHEEB/jryTo32hF3RAaWr6HCCbLdwztlWaC7Td5pS7fNtF/5jzaleliXoid2PKbuhTPH7HlRac5myT41cJ/5Cq9K3hUmRKco+WaZiJShNksrfdKrDNp3uPD24TsMG/fjwYBh5SQcvbPB8kKWtSvja0yqKbNOxQ2+oZo9TfZLULCk6THFOm1Q1tem7Jz/yOi4Bs5tzUFkVtlCJSxa5LK+/0W24cCLZBso2tva4zFsWMV9NBBQAM8lzT9yr/gGrast+p8SoFPvcMCUMfgetqU1VpaVKLx3aZtu6UZZFOjXgdp1qVZe26lTpS8odnFf+oNKSpdqmVqc6Rk475qWkOAJF/GCPhzz0eESv1P322zfx0ZL7D9GPtGN9lPoGjNeFj6nx3vX2EfPCFgTp0fui1dtpVXVDt8uyJaHBI74kbATzggJGjJdpae9VeGgQAQXAzBEbHmL7Q1S4qi4MXuTbVN0gOfosBm/LOFTroMdlg1pV0yxbD8XwdcrfVPaOx1SUaQ8UzWXKPlUtJScozqUOjZh2N6+mqVWrolbqSsPgGm2qcfzZE3t9g2GqoU21kiP0JEaF6c5lizxsi9luMJhsS45UUIC/istbVPq+a4BZvChIthEfxupFCQz0U4TJdbzM4CBfAgqAmSc5RdknX1H6XklapW2Dd0ySH1TOhZfs8yUpXNlfS/WybKeeiAxTfHSrDjz3kop2PKYcveKyTmK0lL7HqbcjMkyrSs/p2LYEPTFsn9uynlaOXKf3D293Q7qKMhNU3PSSPr+3VMPH0IzkWl9uZphWNVSrRraAUtvUqlVRjD+Zi4YHk0HhoUFqbXe93bcsIlhGCyeS7Ukd57fd9vZb1Ntn0aKQQPlZrVar70oDAIyXY1BtZJuOHXIan4I54/WyxhHBZFBjS4/2fv89Hf3G0FinN87d0P/52RXd6h6YzjJHNS/IXy9/Y4PjNo9z7TxmDAAzTNq6cBVdaJOaq1UUnUA4mYM+nbLMbTiRbE/BtLT3ubz3ZP3qxRoYMF5/hCkk0GUMSm1zl+IibbdyCSgAMNMkP6jcTNtTRblux9RgrtuYFKazlW2O6QhTkOPCbxQB/n7avnmpy7yzv2/TxrtttywJKAAAzDJp94ar+L1Wl3mfXBeh4EDjXPZD5gXo4/e4ftCwuLxFackRkggoAADMOhuTwl2+FCxJn/54lIICjTNQ1rQgUPesMDmma5q7FBzo7/iGEAEFAIBZJsIUpGUR83Xxmtll3kMbIxUc5PtL/8KQQP31Z1e6zHPuPZEIKAAAzEq70mN0vKjeZd4zj8RrvgECyp3LF2rjmqHH43v7LfrP3zTpsQeiHfN8XyUAAJh0ackRamrpcXmDbHCgv774mXgtDPHda9BCF4zsPXm1uElpyREuT/QQUAAAmKX2PLRcR3513WXewx+P0ifXRWieDwbMmhYE6suPr1K80xNFvf0WvfJOg3alx7qsS0ABAGCWSkuOUG+fRWcvtbnM/5vPJeruFYsU6D99g2YXhgToTx6M0daUJS7zj5y8rs98ImrEN3kIKAAAzGJffnyVfvBajTq6+l3mP/elJK1YtmBaxqQsCgnU9o2R+m+Zrr0kF6+ZVXmtQ5/dGj1iGwIKAACz2LKIefrzRxP0dz/5wOXtssGB/vrel9cq9e4wLQwJmLL2TQsC9dRDsfqLP3J9qWBjS49e+MU1ff2pO92+n4Vv8QAAMAe8erpRVfVd+vLjK0cs++HrNXq1uEnmYb0sE2K1KswUrH2fS9Qn7nV9IVtvv0V7//mi/vrxlVodu9Dt5gQUAADmiO//R7XtSZ6H40csO3+5Xd//j2o1tPSoc4JBZVFIoDbctVhfemSF48Vrgzq6+vX88So98okol0eNhyOgAAAwhxwrrFNlTYe+4eHWSnF5i1745TW1d/Sp12JVX5/FzV5GCpkXIIvFqqQEk/77H65w2zPS2NKjZ3/ygfZsX+41nEgEFAAA5pzi8hYdL6rXt5++e8TTM4Nqmrt0trJN+b9uVMNH3Qrw99OCeUNjVaySY+Btyp2L9dB9d2hjUrjH/V28Ztb//flVff2pO10eM/aEgAIAwBx0ua5Tz/7kAz20cak+uzV61A8J9vZbVFnd4ZheGBLgcfyIsxZzn46cvK6quk4dfGaNFo3xJXEEFAAA5qiOrn4dL6rXG+duaM9Dy7V9U+Sk7vvf327Qr85+qF3pMXpky7JxbU9AAQBgjmsx9+kHr9Xo/OWb+lTqHXowZcmYekeG6+236Gxlm87+/qbOXmrVQxuX6omM2FF7Z9whoAAAAEm2QaxvnLuhN8s+Ukt7rzYmhSspfqHiIxdIkpISFjnCRou5T7VNXZLsL1yr6dD5y+1avzpUG+9erE+l3jHm2znuEFAAAMAILeY+na1sVWVNp2qb7UGk2ux42VuEKUjxUfbgsmKRkuIXaWNS2G31lrjz/wEUkGe/Vqb/AQAAAABJRU5ErkJggg==;" vertex="1" parent="1">
          <mxGeometry x="160" y="190" width="552" height="290" as="geometry" />
        </mxCell>
      </root>
    </mxGraphModel>
  </diagram>
  <diagram id="NKe7twJPEcOJ2SDsEEBc" name="User OBS">
    <mxGraphModel dx="1178" dy="628" grid="1" gridSize="10" guides="1" tooltips="1" connect="1" arrows="1" fold="1" page="1" pageScale="1" pageWidth="850" pageHeight="1100" math="0" shadow="0">
      <root>
        <mxCell id="0" />
        <mxCell id="1" parent="0" />
        <mxCell id="zvvAyeVvJ9iShHuQdVKQ-1" value="" style="shape=image;verticalLabelPosition=bottom;labelBackgroundColor=default;verticalAlign=top;aspect=fixed;imageAspect=0;image=data:image/png,iVBORw0KGgoAAAANSUhEUgAAAsQAAACsCAYAAAB8bbqdAAAgAElEQVR4nO3de1zcd53v8RcwQCAMAdJwba6kNtMNbahNWME2LUPNiW6t1Po46dJ6OLubPNa6e9Y1MW4eij52Y82aTaye9bINPhSreSSPs1V0tWIs0JuwQtoChYZUQy4QbpOEEIZwv5w/BgaGmeESIAP83s9/Gn7zu3x+Pyjz5juf3/fnNzw8PIyIiIiIiEGZfF2AiCwsdVerKLv4Mk0dF7jW2Uj/YK+vS5JFKjgwlMjQWNZF3UPq+seIX7HR1yWJiHjkpxFiEQE4fekUv675DwaGB+jt7/J1ObKEDAPLTKGEBpl5POmzbI5P83VJIiIuFIhFDK67v5MXfr+PVvsl+gf7fF2OLHFBpmWsjbTw1x/6OqaAIF+XIyICKBCLGFpbVwvHSvZz9WYzDA/5uhwxCD8/f1aFrebvt/9fQgLDfF2OiAj+vi5ARHxjYLCPF37/Ba52NioMy201PDyEzX6J77/5eQb0qYSILAAKxCIG9Z03/g/Xulp8XYYYWEvHRY6/9XVflyEiokAsYkQ1TSXYOhs0Miw+NTQ8yB9tb9N045yvSxERg1MgFjGgX1Z/l76BHl+XIUJvfxe/ePc7vi5DRAxOgVjEYJpunKOrz+7rMkQc/KC+7Szd/Z2+rkREDEyBWMRgqi6/Tt9gt6/LEHHy8/OjpqnE12WIiIHpSXUiBnOhrZrhoWHw83Ul8yg8g+xtT7PZvNrxtb2UovIcCjrmYucZZGceYDMNFBVlj9vn6PJSjufnUDEXhzKIvsE+Ll0/w9a1O3xdiogYlEaIRQzG3nN9aYdhMsi2HhgLwwDmVKzbdhM3ja3jLHkcySxivyVx3ioUV35A203NeCIivqMRYhGD6eqbk2HShSthO5sB7Cc5WphLMxCXsJtnLD6uSybV0dvm6xJExMAUiEVkabHXYyOVaPMunrFc4Ce1hTQ35nK4ceT18Ax2bnsaq1s7RSI7M45hNTsWR286xpFNUFNuJa/R45GmJc5ykGc2pRI9cqzj5TlUdExWB8BILZykyJ6GNX41NB1iX1nhrRciIiJeqWVCRJaWjlxeaWoAIHrTAfZmFrE/JWOkXcLRTmGd2E5hPUjyfNSScJC9m1KJtpdS01RKDauJnUkd5l2OMCwiIvNKI8QisuRUlGXTEp7BjpEb66LjD7A3czvHy5nQTpFIcsoxsuJTuS8hh7xCK5WWPPZuWo3t7B4O19bNWU1VtSMjw+ChrWN8HVAxbkS65uwe8uawDhERcadALCJLUnNHIXmFhSOtCQewmlPJ2jbyonkXezN3ze0Bw9c72iLGa8zheFMeWfGpZFmLyLKXcrwwh5bw1dOso4HWRoVhEZH5pkAsIktKnCWPZ8J/6ugd7gA6LoAdMIPN3kC0ebXLDXczd4FWO2w2r8ZqyaCyrNAxwmvZNdInXM/4+RIqyrKpIJFkSw5Zm1J51JLI4Y4GYLZ1iIjIXFEgFpElJzr+AHvjD0xYWsorha9zX+YBNruNzLrPHez9pro6CmpLsW5LhfgD7M10PU5N7VjAjbMc5JkEsNmB8f3Cja9TQ+q06hARkfmnm+pEZElprj3I8aYGbOOW2ZpOcrwohwoKySs6RI29YZLtf0qN88nWDbR6esp1Yw5Hy0sdQXeUvYGa8j0u4bm5sR7MqWyOT2WzGWxNh/hJbR1Mow4REbl9/IaHh4d9XYSI3D5ffTmTm0t9LmJZdGJXbGBfeq6vyxARg9IIsYiIiIgYmgKxiIiIiBiaArGIiIiIGJoCsYiIiIgYmgKxiIiIiBiaArGIiIiIGJoCsYiIiIgYmgKxiIiIiBiaArGIwQwM9uPn6yJEJugb7PF1CSJiYCZfFyAit1dwYCgp6z/KMtNyX5ciAsD17lZaOi76ugwRMTAFYhGDCfA38eHEJ4gKjfV1KSIA1F2t4re1eb4uQ0QMTC0TIiIiImJoCsQiIiIiYmgKxCIiIiJiaArEIiIiImJoCsQiIiIiYmgKxCIiIiJiaArEIuJd0yH25R+ixlfbLyZzfq4NFBVZOd40ZzsUEREvFIhFZN7UXC6EhO1s9nUhS5YjNO8rL/V1ISIii5oCsYjMk1KqGhPZaUn1dSGGV1Ou0CwiMhk9qU5E5oXtbB4V4ensN/u6kqVsNVZrEVZflyEissgpEIvIGPtJjhbm0gxAIjst6yes0EBRUTYFHaNfZ5CdecBDS0QD1Y11xCXkED3lQR37bLEUkRU/sqjpEPvKGNt30yH2lRWObRK+m/3WXURPWk8px/PziE1Jp7Isl2YS2ZlxDKtbQJ/qnLzsh9lcq+nWNrpuDhWjx5mwXk25lTwOcmRbqofrlEEyhVR0AOSwLx9IGFn3FmqMC6+jmdFr72A7u4fDjekuy0REFhsFYhEZ0UBReS7NzsDkCGKQMfZ6UTYF5oMcsToCVU25lbx83EOxvYTKjgx2WFfPviz7SY6WXWBnRtGEwOhej+3sHg4XnRwXzuooKFtPdmaRlz7m6Z7TxP00UFQ0s2s189ocKsry2JlRxBHzSG3lJ0nyFD69XqcD3Dc+NM/o3CfU2HSIfWXFVNt3jRxjJn/4iIgsXOohFhEHewmVHeN7flPJSskYe73ppxR0ZJA9LlRt3naQZAqpmjATQk1tLs1zdTOdeQ2x1FHZ2DBFvRC9KZvkjmKq7WOrJad4GsEeMYNzctnPVNdqLmpzrjM2Irz5zgzouIDN04rerpM30zx3lxrjn2Zn+LhjjJznloQ5+MNHRMSHNEIsIg72CzSznh2z7vktpaoRklPm6ma6VLIyD3I8P5t9teBsGwCgjoJCKwUTtki2A/PZuzyta3W7a/Nyneb0WKtJSkikoLEE26Zd0FhMc3g6z6hPXEQWOQViEXEwryeOYlrtsHk2AafpdSrIIDt+6lWnL5WszCKywPGxfeEeSElnfkLfNEzrWvmiNg/XKeMYMXN4hOhN2STX5vBKUxqxjXUkW46pXUJEFj21TIiIw8SP3O0nOTr+Bq347SRTSN646btqynOoCN/No+PCb83lQuIsT8+gXWI1MWaouDy631KOjz+uW53riQMwp7ElvI6C2llMJzbNc3KvYYprNRe1zdbodRplr3dttbjVcyeV+xKgoiybgo4M7pvTP3xERHxDI8QiMiKVrIzdHC0c/cg9g+yM3ZwqvDD2euZByB+ZrQDGzfYwwn6SU42JbLHMrKd087aDJDv36zhuy+hxJ86cACSnjNw4Zs2DouyxehjZ3uPMF17Oeapz8rbdpNdqNdZZ1zZDk10ny27iCnM5nJ87bpaJWz33kV7mRj10RUSWDr/h4eFhXxchIrfPc6f+ks88+E2iQmPnfN+agssg7Cc5WljMljlqCam7WsVva/P47IPPz35nIiK3QC0TIjJHHFNwJVsUhpc628jNdEm6mU5Elgi1TIjIHHE8NU2WOs09LCJLjwKxiIjMgB4XLSJLj1omRERERMTQFIhFRERExNAUiEVERETE0BSIRURERMTQFIhFxLumQ+zLP0SNr7YXERG5DRSIRWTe1FzW08xERGThUyAWkXlSSlVjIjstqXO2x5pyK/vKS+dsfyIiIqBALCLzxHY2jwo9zUxERBaBeXswx43uAaoaOrna2c/bl+wA2Dr66O4fIjDAn/iIIAA2J4QRGRrAvXeGER8RPF/liMh02E9ytDCXZgAS2WlZP2GFBoqKsinoGP06g+zMAx5aIqZ4mlnTIfaVFY59Hb6b/dZdRHvd//jlOezLBxIOcmTbxNFnx3otliKy4scfi7E6vR57svMr5Xh+HrEp6VSW5dJMIjszjmFV2BcRuWVt9n5Kqq/RZu/n3TpHVqxv7aLN3k9YiImNCcsBsKwNIzIskLSkKGKj5icrzmkgbmrv5d3LnRSfvc5V+wD+/tDTP+S2Xv/gEJeu9QBw6VoPpgB/fvbOVZYF+vPBNWYe2RTB2pXL5rI0EZlSA0XluTQ7g2Ypx/NzgIyx14uyKTAf5IjVEURryq3k5eMeiu0lVHZksMO62v0w9pMcLbvAzoyiCYHSff+2s3s4XHSS/dZdWK1FxJRbycNTEJ4mr8ee6vhrgDoKytaTnVmknmgRkVtUb+umpLqN1yqv0dbRR1rSSiLNJj79kTsBWB0TQpQ5kM7uAeoauwA4c8lOa3sve7/3HkEmf9KSonh4y0pnYJ4LcxKIr9j7OVHeSnXjTfoHhxkYHAnBg9PbfmBwiIFB6O4bpLD2GqV1N1hlDuTpP4/BEjd3Jysik7CXUNmRyE5n2EwlKyWDirKRL5t+SkFHBtnWsTC6edtBkvNzqGo6wOb4sV3V1DqCtcfgaF5DLHVUNjZg3TQuMLsdH6I3ZZNcm0e1fdfcjMZ6O/aUx88GIDnF02i4iIhMpaWtl+/98iINrd2kJUXxhV2JkwbasBAT920MB3D+99nH1zkD9b+drCMsxMRnHl87J8F4VoH4RvcAL719hf+uu+FxJPjW+NHVN8ila4M8/8pl4iOC+N9pcRoxFplv9gs0s54dsw6epVQ1QnKKt1HcVLIyD3I8P5t9tcBo+wEAdRQUWimYsEWyHZiT9gQvx3bue5Lji4jIjLW09fLi7y5Tde4Gzz6+jrSkqFntb010CGusCTxlTaDqXAf/drKOmKhgnn183azaKW45EL9Tb+fYG8109w0wOFdZeIKuvkHO2bp57uVLPHpPJJ96wGM3oojMBfN64iim1Q6bZxM+m16nggyy4ydbKZWszCKywNHTW7gHUtJxD6jzwcOxnYHc2/FLOT6fJYmILEEl1W384OV6dqXHs39X4rS2Odd4k5vdgwQG+nHP2snfDO7bGM4Le++lpLqNA8dq2ZUez45tt5YVbykQF1Rf4xeVV7nZO82eiFnq6hvklTPXabjey9+n30lggN9tOa6IoUxsJ7Cf5GhZIc4e4vjtJJNDXvl2Zw9vTXkOFeG72T++XeJyIXGWvOm3FpjXE8cFMKexJTyXgtpSrJP1CNvrsZHq+WY9VhNjhoLLpWTFj/RBjz8Hb8eG6R9fRESmdKKokdr6Tl7Ydy9BJs+Tmo22P7z8BxvNI/eWhYWY8AOGgc7uAQDuCA8i/YN3YL3/Do/tEWlJUWy1RPCtly7QcKWHv/nYmhnX6zc8PDw8kw2+U3yZ6sabty0MjxcU4E90eBBfeWwtoUEBt/34IkvBc6f+ks88+E2iQmPdX3SZZSKD7Iz1nCq8wA7nTXOOG+0qRtd3maFhdPtitkw2yjtxlgcgOWV0VoiJszyM1DF6/PH1eZxlYmKNE85h0mNPdvztVOXngMu6Mlfqrlbx29o8Pvvg874uRURmqW9giMMn6oiNCvYaTE+V2/jhbxro7h2kp3+IwaHpRdGwEBMB/rArPYFPPBjrMWiPBvEvP3OX1yDuyYwC8dd/c5FzrT30zVePxDTFrQjmnx9fp1AscgsmDcSzZDu7h8ON6a4hWWQKCsQiS8c/Hatlx9ZVPJJ8h9trp8+28+2fXaC9s5/uWQysLgvyJzQ4gGc/sc7jcUqq2zj11pUZheJpR+cT5a2cv+L7MAzQfKOX516+5OsyRMSFY+7hZIvCsIiIEX3vlxfZeneEW0jtGxjiaz/5Ewd/8iear/XMKgwD9PQN0Wbv55v/eZ5//O57ztaKUWlJUTyyZSWHT9RNe5/TCsRl5zt4/Y/tcziTxOw1t/eS+0azr8sQEafVWK1qKRARMaJflbbQ1z/MJ7fHuSxvs/fz7PPVlNa0cXNCcJ2trp5Bzlyw87dHq6m3dbu89kjyHcRGBXOiqHFa+5oyEF+61kNeaTOdPbe/Z3gyfYPDvHWpg4Lqa74uRURERMSwzlyy81plG89+Yq3L8npbN3979F0uNHfRO0+DqgNDwzS39fD5757hXONNl9f+5mNrqK3vpKS6bcr9TBmIv1V4GfsCC8OjbvYO8vOKK9yY4784RERERGRqfQNDfPulC/zDk+td+nU7uwf4wvfPcK2j77bUcd3exxdfqKWlrddl+eee3MD3fnmRvoHJA/mkgfiti3Zu9i3ssNk3MMRLb1/xdRkiIiIihvOrklbu2xjOmugQl+V7v3eGqzduTxge1d7Zz+e/+55L+I0yB/LEg3H84OX6Sbf1Goj7B4f5wZtNdPUunL5hTwaHHD3Ol0bmrxMRERGR+dc3MMTP32xmV3qCy/Lv5F906+m9Xa519PGVH77vsuyxtBhKqttos/d73c5rIP7de9foH5zRFMU+c7N3kONlLb4uQ0RERMQwXjx1mb/4UAxR5kDnsnONNyl+5yp9PpqIYWBwmDOXOjl9tt25LMjkzxMPxnGy2PsNdl4D8a/fvUbvFP0WC4WfH5y/0sOVSZK/iNyCpkPsyz9Eja+2l4VD30sRmeBUuc3tUcnf/69L3Ljp2zx2s3uAb//sgsuyx9JiOFV+xWsvscdA3NTeyyLJwk5Dw/Du5U5flyEi49RcLoSE7dN/jPMtaaCoyMq+8tJ5PYqIiIypOtfBmphQt9Hhc5dvTrLV7dPRNeAyu0SQyR/L2jCqznV4XN9jIC6t65jybryFpm9giOKz131dhog4lVLVmMhOi6fHK8t01JQr6IvIwnT6/XYeuHuFy7LjhY10di2MT+tvdg/w4u8uuyx7ZMtKXq30PF2vx0BcfuHGtJ8rvZC03Oijq29hThEnYjS2s3lUhKeTZJ7vIzkeCHJkm4K3iMjt8mrFVbcn0r39frujj3WBaLzS7fIUu62WSE7Xeh48NU1ccKN7gKv2hT3VmjcBAXCmqYsH1s37O7D4mq2SQ++u48C9F9n9SgS5Wet8XdHSYD/J0cJcHM+ATGSnZf2EFRooKsqmwPmJUwbZmQc8tEQ4HuMcl5Dj5THOU+yn6RD7ygrHVg/fzX7rLqK9LLeVW8nj4FgodjmPUYnszMiB8mxaLAehLIcK5/JjWD3+2nDU2WIZ9wS+pkPsK2OsXm+1TnqepRzPzyM2JZ3Kslya3WoYv10O+/KBhHHnN+3vg6f9TVzfSy1M9bNwi/vVr2eZC3oP8Kk2ez99/UPERgU7l1Wd68B/AYVhAPz8KKluc/Y5R5kDiQoP4lzjTTYmLHdZ1S0Qt3cNYArwYzEOtPYNwNXO2zvnnUzHRQ4daefpfVtYDUA7J468Cp/O5CnPaWlKJa9cYN2jWyB6HenNlZSwjrQ5rHgxq7x0g6br3TyaFE1gwLSezj6igaLyXJqdwauU4/k5QMbY60XZFJgPcsTqCGY15Vby8nEPY/YSKjsy2GFd7fk4IyHzyEjIrCm3kle+3XFc+0mOll1gZ0aRa3jythywuXxVyvHCXLDkcWTT6pFwXMyWjGNYzQ0UARVleezMKOKIefTYJ0lyhtgZmKQmT9fLdnYPh4tOst+6BqijoGw92ZlFHoKsY9Q7ZmLQ97Jfr9+Haa8/sZYGioom+1mY6vxGr+Vk5ygLx1S/ky9yaO9FHjr68C3+ntV7wGLT3tXPL99u5vEPxhERGuj2ekNrN2tiQl2WVdbdwL7AHpTW3TPAH2rbXW78i4kKprWt1y0Qu71bLuanvg0MDnG9axEm+UWtnRNHXqPkth7zIm+8E8maaIAIPrzlOm9U39YCFrT2rj5+/GY9f5dXxW8qW+gfnOb9APYSKjvG9/ymkpUyLgA1/ZSCjgyyx4WzzdsOkkwhVU2uu6qpzaXZ6810jrDnHHEFosMTwV7vCLbmNcRSR2Vjg+tm3pa7nUc9LSSyJWEkjJvT2BJeR4t9bJXklLGRys13ZkDHhQmhepomq8ntekL0pmySO4qpto/WMdmorhcz+D7MZH2XWqb6WZjm+d3yOcoioveApah/YIjfVLbwd3lV/PjNeton9AW32fuINLsG5Yst3TC8wNpt/fxouur6nIoocxBtdvfBU48jxEML7YRm4IqHkxTPSo7/kJx3HP9+dOf9nG9tZ8M753nl/nSKs9bRUJjP/yoY6bW5P53iR9vZ/Y13qBvdwf3pHKSY3GZg73kSdz5BbkaE+3ZZk1VxkUN7i3kFgEh2fzGTD7/r4bivjKvt0XbOx0Xw9MgeVsdEcr61HZIi5uzaLAXtXf38+M1651/5U44Y2y/QzHp2zPoj7VKqGiE5ZZKeXk8tDeHpI/9IJSvzIMfzs9lXC2MtDd6WT9j3uJBq3bTaGdy2zMtH9VPVVEdBoZWCCVsl21nYpv2zMMn5qTViwRt7D4gkMQ5G/w+c7Hf4xNf0HrC09Q86gvEr1TYeTYp2jhi3tPW6tEsAXGnvXVD9w6PaJ0zJG2k2eXxAh1sgvtrZT4+PJlOeC+833eA/yxbeN2SheZiz5JBO8dGRvitbJbu/AQ8d/SsOjHz9L63JztdLjudzgkxyj24Z2UM7J45Uwr4n2N1cyZp9Ix+ledrOluy9kOqLnN/5BMUZEWN1TNy+dT2841obcRGM/zC+rrWdM40BvHfZ83QqRnLxquuUNxOD8fBwgOcNzeuJo5hWO2yeTZhpep0KMsiO9/L6SBiOTSli78g6trN7OOwyX3oqWZlFZIGjR7dwDzhDsfvyGA+Haa4dDamQnOKppWGueKkV8N6fXMrx+SpnLkz7Z2Hu+oIbr9zNf5Z5nzRf5s7y4AA+GjD+PeAih/Y6Ouon/R3u4bX6RxfOe8BrtQNc6eidi0tkeF29rt0CE4Px9RsDrF7p+qjm9s6F2WEwsY0jNjKYqvPuoxJugbh3YPGODg8Pw9AinB3DF5qu3iAxZsJf03ERrBn9d2s7de+8Q/o7Yy8/em87J178uWM0AIANHJy4Y4/bTVJI0sN8pTWf9L3XHSMB93rYPma9a21yS9q7+jnTaKdnIMrzCm4jqyc5WlaIs280fjvJ5Iz1+gI15TlUhO9m/7jwW3O5kDhL3gw+Ji/lldq6cSPEE+taTxwXpr+86XVHTbfSE+xmNTFmKLhcSlb8SC/t+GsyWU3mNLaE51JQW4p1NjNg2OuxkTp2LtP8PnCr68PUPwtzeX5Adx8MDAbNah8yMw2t10mMGR3giGBd3Mg/J/sd7uU1l9vZ9B6wpPUPDnGmsYPgAROJsa49xP0LdDB1YJpPXXYLxNHmQIJM/otuHmIAP79hEmNX8KmUhKlXNrrqKOrebQcm+YhppHVibJvX2L3lCYr3ReAcIQbgOvU2SIv2sh3tnDhVzE+rt3AgCbBdpLg5kuyR9VdnZFKc4fgobvcpD9vbKtldiavmdhrAOUKQGBPBPQlm7knQ57Sv1V7hrfPtLsu2bojkyW0JrFsVynOnrnjZMpWsjN0cLRwdWc0gO2M3pwovjL2eeRDyR2Y9gAkzKgD2k5xqTGSLxdPNdCPMu3jGUszhMuvYLA+WDBgdHJw4awMjI7z2Q+wr9LDcjOvT0+IPsL9jD4fzc93WzfIWACexedtBkp3n7LgmLaPXxFutZnD0SudBUfbY9WJkH5nbp3dsy27iCnMd5+K8wW0a3wcXM11/ZJtJfxamOr+Z9Q2HBMHa2Go+lfJXM9hKZqU6ctx7QDsXm8cFW7ff4Rc55PW1dk6cWhjvAQ9b1DIxV6509PKbqlaXZetWhfLktgS2bojkx6ca3NoOIsyBXO1YeG2rYSGun4q22ftdHiYyym942LVh+K2Ldo692UhX7+ILxDBMhmUl2Wmxvi5kUXDrIa6ErzjvAnZ93dHblczFb4z1eiXGRZK972EYWW+0f8x9u0yeonJc//HIsugJ/Whs4ODRsf05t89eT/Gp8bW53vHcUJjPT2MyHb9ohddqr/D9keAyPgiPeu7UX/KZB79JVOjc/3/iaH1In6PR2VnUULvewzRu3mZhEF+ru1rFb2vz+OyDz/u6FANp58SR0U/8NvDo/ddZ96jj97Ln3/2O37luv5+/mMmaV/QesNRc6ejl735cBbgG4VGnym1Unbezf1eic9k///iPvFF5dcH1EW9MWM4Le8c+pvjeLy8SExHMJ7fHuaznFojP2bo5/NtLdPUtvkDs7+fHpx5YxWP33TH1yrKoOXrXMnkq2jFS7exfE+cI8cQgPGr+ArGHOXt9wFMo9xiSZcFQIJaZ0nvA/LrS0cuR3/zJLQiPOn22nZ+90cy/7rE4l73wq0v8v1c9TXXjWymWSL6+e5Pz66/95E+kbY50e6iIW8vEihATi7UNN8jkx4oQt1OSJSjt3kjy3m3nqXsvUhy3jtypNzGMhy2reNiyygdHdkyn5mvRm3LY2Zg9oWVi5h/ji8jCpfeA+bUqPJhv7PL+G3N0Lt/xPnDnckKXBdDVs3Cmvw0y+XPPujCXZdft/USZ3e9ZcEuPq8yBBAb40bMwHkU9Y5a45VOvJItf0sPkJgFsIXfSKX3EeBzB3OrrMkRk/ug9wKdio4Lp7B6gs3uAsJGByLSkKA6frJtiy9srIMCPjA+ODRD1DQxxrvEmlgkhGTw8mANgy2r3FReDkKAAVnlolBYRERGRuRFk8merJZKS6jaXZfesW1g3tkeEBbo9XtqyNowgk3v89RiIH/pABKFBXuYqXaAC/P3Y/gHdYSoiIiIy37bevYLT799wWfbEh2NZvkBaV5cF+fPxVNdZ6l+tvMYjW1Z6XN9jIN4YHbronlYXbPJbtCPbIiIiIotJWlIUp8+2u0zTm5YURXjowgjEQSZ/PvGg683jp2uvs9XifpMgeAnEgQF+3L/WTID/wpo6YzLLg01sjA6ZekURERERmZUgkz/3bQzndK3rvPef+fhan48SLwvy5ylrgktrREl1G5Z1Zo9zEIOXQAyQlRJDkGlxBOLQYH+yUjw9vFVERERE5sOnP3InJ4ub3EaJV/r4fq7Q4AC30eEXf3eZT3/kTq/beA3EK0JM/PmGFQR4XWPhWB5k4oEF1sgtIiIispRtTFiOZV0YvypxfardoT0W7ljhm8exr1geyKE9FrfR4ZioYDYmeJ+JbNK4++kPxRISuLBvrgsNCuBzGd4Tv4iIiIjMj13pCfz8zWaXUeLYqGC+mv0BVoTd3pFic6iJf/jkerfgO9XoMEwRiDQ3LhAAAAgASURBVAMD/PifW6MX7IwTAf5wT3woa1cu83UpIiIiIoYTZQ7kLz4Uw4unLrssv2et+bb2Ey8PMfFYagzbJ8wi8bPXm7lvY/iko8MwRSAGeGRTJFvXhRMUsPD6ieNWLOOzj2h0WERERMRXnrIm0NLWy6sVV12WP/rAKvZ+agORHp4MN5dWhAXy6Y8k8NcfXeOy/PTZdk6/386zj6+bch/T6hDOToslIXJhjcJGhJo48NE1BC7AoC4iIiJiJPufSuTX/23jzCW7y/LtW1byzc/eQ1zUsnmZvSwqPIiv/fXdPLk93mV5va2bF09d5svP3DWt/UwrEAcG+HHgo2uIXL4w5pYzLzPxuYzVrFggkz+LiIiIGFmQyZ8vPXMX337pAi1tvS6vrYkO4T/2JvE/UqJZHjw3bbhhISZSLJG8sPde7lnrOrFCm72f537yJ770zF3OR0tPZdpzSIQGBfCVv1jPKnMgAX6+G5VdEWJi90NxmnNYREREZAGJMgfyhV2JfPVH71N1rsPltbAQE5//1Aa+849JbLlrBcuDA25pxDgsxMTGhOUc2rOJr+/e5Dav8JlLdg4cq+ULuxJdHts8lRkNsa4yB/Jc5gaef6WBOls3fYO392l2q8yBfGHHGuIjpn+CIiIiInJ7bExYztFn7+GrP/ojD9uieCzVdT7gNdEhHP3MPdTbuimpbuPlP9ho7+zH5O/H4PAwXT2DznVDggMw+fsxNDRMSHAA6R+8A+v9d3i9Qe7Viqv8+r9tHNpj8foADm9m3HMQGhTAlz62jtw3mjl9sYOuvsGpN5qlYJM/sSuC+NLH1i7YGS9ERERExDGKe/TZe/jWSxf42k/+xN98bI3baO2a6BDWWBOcN+S1tvXSZu+j3tbtXCc2MpjYqGVEhgeyZpLOgDZ7Pz94uZ6+/iEO7dnkMgfxdN1yE+7uh+JI2WAm981mevoH6e4bmnqjGQoM8CPI5MfH77uDj917x5zvX0RERETmx+eeXM+rFVc5cKyWrZYIdqUneBy5jY0KnlF7w6jO7gF+9kYzvzt9hU9/5E52bIu+5VpndVfavXeG8e9P3cXv3mvj5+9coW9w2GVi5lsV4O9ozn7wrgie/OAqjQqLiIiILEKPJN9BWlIUvyppZe9332OrJYKPPLBqynmBJ1Nv6+bViqu8VnGNh5NX8qN/2nJLo8Ljzck0DR/5syge2RTJG39s59R717hqH8DfH7r7hpju/XemAH8CA/xYFuhPyvpwHrtvpWaREBEREVnkgkz+fHJ7HDu2reJU+RX+7WQdbR19pCWtZOvdK7CsM0/a89vZPUDtpU5Ov99OSXUbQSZ/Hk5eydHP/tmMe4W9mbPEGRjgh9USidUSyY3uAaoaOvn9uXYa2nqx9wzi7wfLxj0GemBwmL7BIQID/ImPCOLBu1Zw751humFOREREZAkKCzHxye1xfHJ7HG32fkqqr3HqrSt866XztNn7nTNIjKpv7XIut6wNY+vdERx99s9uqb1iKvMyBLsixMRDH4jgoQ9EOJf1Dw5zztbl/Do+IlgjwCIiIiIGFGUO5LHUWJdZKDq7B6hrHMuKq2NC5mwEeCq3LZEGBvhhibv1fhERERERWbrCQkzctzHcJ8eeXQeyiIiIiMgip0AsIiIiIoamQCwiIiIihqZALCIiIiKGpkAsIiIiIoamQCwiIiIihqZALCIiIiKGpkAsIiIiIoamQCwiIiIihqZALCIiIiKGpkAsIiIiIoamQCwiIiIihqZALCIiIiKGpkAsIiIiIoamQCwiIiIihqZALCIiIiKGpkAsIiIiIoamQCwiIiIihqZALCIiIiKGpkAsIiIiIoamQCwiIiIihqZALCIiIiKGpkAsIiIiIoamQCwiIiIihqZALCIiIiKGpkAsIiIiIoamQCwiIiIihqZALCIiIiKGpkAsIiIiIoamQCwiIiIihqZALCIiIiKGpkAsIiIiIoamQCwiIiIihqZALCIiIiKGpkAsIiIiIoamQCwiIiIihqZALCIiIiKGpkAsIiIiIoamQCwiIiIihqZALCIiIiKGpkAsIiIiIoamQCwiIiIihqZALCIiIiKGpkAsIiIiIoamQCwiIiIihqZALCIiIiKGpkAsIiIiIoamQCxiMMtMy+np7/R1GSJO3X2dhASG+roMETEwBWIRgzEvi6Cj57qvyxBxsve2YQ5e6esyRMTAFIhFDCbavBabvd7XZYg4tdovEWNe6+syRMTAFIhFDCYp/kGqm3/v6zJEnN5rLmVzfJqvyxARA1MgFjGYtZEW2rtasfe0+boUEZpunGOZaTlRobG+LkVEDEyBWMRgTAFBfHhDJkV/PO7rUkT4be2P2GHJ9nUZImJwCsQiBpS24XHet71NW1eLr0sRA7vUdobOnna1S4iIzykQixiQKSCIZ7Z+mRNv/yvdmoJNfMDe08Yv3v0uT2/L8XUpIiIKxCJGFb9iI4/ctYsf/uHLCsVyW7V1tfDi6X/hU8n/qN5hEVkQ/IaHh4d9XYSI+M6ltjO8VPE8OyzZ+uha5t3pS6d449xLPPXAF4lfsdHX5YiIAArEIoJjxO4X7/4712/aSN3wce6O2aqRO5kzNns9Z1tP82bdz9hwRxKfuPfvCQkM83VZIiJOCsQi4tR04xwl5/+LP9reYmConzvC7vR1SbLItdw4T9iySO6OfoCHNj6pP7REZEFSIBYRj+w9bdg6G3xdhixy8SsSNRosIgve/wed+dTz1RKqDAAAAABJRU5ErkJggg==;" vertex="1" parent="1">
          <mxGeometry x="71" y="180" width="708" height="172" as="geometry" />
        </mxCell>
      </root>
    </mxGraphModel>
  </diagram>
  <diagram id="vN1HoCFun1BeTmYJ962w" name="Order History OBS">
    <mxGraphModel dx="1178" dy="628" grid="1" gridSize="10" guides="1" tooltips="1" connect="1" arrows="1" fold="1" page="1" pageScale="1" pageWidth="850" pageHeight="1100" math="0" shadow="0">
      <root>
        <mxCell id="0" />
        <mxCell id="1" parent="0" />
        <mxCell id="NUU8ucEr8aSNAqFaoHed-1" value="" style="ellipse;whiteSpace=wrap;html=1;aspect=fixed;fillColor=#1C8AEB;" vertex="1" parent="1">
          <mxGeometry x="10" y="360" width="80" height="80" as="geometry" />
        </mxCell>
        <mxCell id="NUU8ucEr8aSNAqFaoHed-2" value="BeingEdited" style="swimlane;fontStyle=0;childLayout=stackLayout;horizontal=1;startSize=26;fillColor=none;horizontalStack=0;resizeParent=1;resizeParentMax=0;resizeLast=0;collapsible=1;marginBottom=0;whiteSpace=wrap;html=1;" vertex="1" parent="1">
          <mxGeometry x="223" y="350" width="160" height="120" as="geometry" />
        </mxCell>
        <mxCell id="NUU8ucEr8aSNAqFaoHed-3" value="Do / Order History entry lenght&amp;nbsp;&lt;br&gt;Do / Order History&amp;nbsp;" style="text;strokeColor=none;fillColor=none;align=left;verticalAlign=top;spacingLeft=4;spacingRight=4;overflow=hidden;rotatable=0;points=[[0,0.5],[1,0.5]];portConstraint=eastwest;whiteSpace=wrap;html=1;" vertex="1" parent="NUU8ucEr8aSNAqFaoHed-2">
          <mxGeometry y="26" width="160" height="94" as="geometry" />
        </mxCell>
        <mxCell id="NUU8ucEr8aSNAqFaoHed-4" value="" style="endArrow=classic;html=1;rounded=0;exitX=1;exitY=0.5;exitDx=0;exitDy=0;" edge="1" parent="1">
          <mxGeometry width="50" height="50" relative="1" as="geometry">
            <mxPoint x="93" y="400" as="sourcePoint" />
            <mxPoint x="223" y="400" as="targetPoint" />
          </mxGeometry>
        </mxCell>
        <mxCell id="NUU8ucEr8aSNAqFaoHed-5" value="createOrderHistory()" style="edgeLabel;html=1;align=center;verticalAlign=middle;resizable=0;points=[];" vertex="1" connectable="0" parent="NUU8ucEr8aSNAqFaoHed-4">
          <mxGeometry x="-0.0947" relative="1" as="geometry">
            <mxPoint y="23" as="offset" />
          </mxGeometry>
        </mxCell>
        <mxCell id="NUU8ucEr8aSNAqFaoHed-6" value="Configured&amp;nbsp;" style="swimlane;fontStyle=0;childLayout=stackLayout;horizontal=1;startSize=26;fillColor=none;horizontalStack=0;resizeParent=1;resizeParentMax=0;resizeLast=0;collapsible=1;marginBottom=0;whiteSpace=wrap;html=1;" vertex="1" parent="1">
          <mxGeometry x="510" y="350" width="160" height="120" as="geometry" />
        </mxCell>
        <mxCell id="NUU8ucEr8aSNAqFaoHed-7" value="Do / Order History Dates&lt;br&gt;Do / Order History Pricing" style="text;strokeColor=none;fillColor=none;align=left;verticalAlign=top;spacingLeft=4;spacingRight=4;overflow=hidden;rotatable=0;points=[[0,0.5],[1,0.5]];portConstraint=eastwest;whiteSpace=wrap;html=1;" vertex="1" parent="NUU8ucEr8aSNAqFaoHed-6">
          <mxGeometry y="26" width="160" height="94" as="geometry" />
        </mxCell>
        <mxCell id="NUU8ucEr8aSNAqFaoHed-8" value="" style="endArrow=classic;html=1;rounded=0;entryX=0.463;entryY=-0.017;entryDx=0;entryDy=0;entryPerimeter=0;exitX=0.556;exitY=-0.025;exitDx=0;exitDy=0;exitPerimeter=0;" edge="1" parent="1" source="NUU8ucEr8aSNAqFaoHed-6" target="NUU8ucEr8aSNAqFaoHed-2">
          <mxGeometry width="50" height="50" relative="1" as="geometry">
            <mxPoint x="600" y="340" as="sourcePoint" />
            <mxPoint x="430" y="250" as="targetPoint" />
            <Array as="points">
              <mxPoint x="600" y="240" />
              <mxPoint x="290" y="240" />
            </Array>
          </mxGeometry>
        </mxCell>
        <mxCell id="NUU8ucEr8aSNAqFaoHed-9" value="editOrderHistory()" style="edgeLabel;html=1;align=center;verticalAlign=middle;resizable=0;points=[];" vertex="1" connectable="0" parent="NUU8ucEr8aSNAqFaoHed-8">
          <mxGeometry x="-0.0947" relative="1" as="geometry">
            <mxPoint y="23" as="offset" />
          </mxGeometry>
        </mxCell>
        <mxCell id="NUU8ucEr8aSNAqFaoHed-10" value="" style="ellipse;whiteSpace=wrap;html=1;aspect=fixed;fillColor=#1C8AEB;" vertex="1" parent="1">
          <mxGeometry x="560" y="580" width="80" height="80" as="geometry" />
        </mxCell>
        <mxCell id="NUU8ucEr8aSNAqFaoHed-11" value="" style="endArrow=classic;html=1;rounded=0;exitX=0.519;exitY=1.043;exitDx=0;exitDy=0;exitPerimeter=0;entryX=0.5;entryY=0;entryDx=0;entryDy=0;" edge="1" parent="1" source="NUU8ucEr8aSNAqFaoHed-7" target="NUU8ucEr8aSNAqFaoHed-10">
          <mxGeometry width="50" height="50" relative="1" as="geometry">
            <mxPoint x="535" y="520" as="sourcePoint" />
            <mxPoint x="665" y="520" as="targetPoint" />
          </mxGeometry>
        </mxCell>
        <mxCell id="NUU8ucEr8aSNAqFaoHed-12" value="deleteOrderHistory()" style="edgeLabel;html=1;align=center;verticalAlign=middle;resizable=0;points=[];" vertex="1" connectable="0" parent="NUU8ucEr8aSNAqFaoHed-11">
          <mxGeometry x="-0.0947" relative="1" as="geometry">
            <mxPoint y="23" as="offset" />
          </mxGeometry>
        </mxCell>
      </root>
    </mxGraphModel>
  </diagram>
  <diagram id="Ccar-KT7stKiYvgBdAJW" name="Notifications OBS">
    <mxGraphModel dx="1178" dy="628" grid="1" gridSize="10" guides="1" tooltips="1" connect="1" arrows="1" fold="1" page="1" pageScale="1" pageWidth="850" pageHeight="1100" math="0" shadow="0">
      <root>
        <mxCell id="0" />
        <mxCell id="1" parent="0" />
        <mxCell id="ZShziQPG1KF6FPyV5aTH-1" value="" style="ellipse;whiteSpace=wrap;html=1;aspect=fixed;fillColor=#1C8AEB;" vertex="1" parent="1">
          <mxGeometry x="20" y="250" width="80" height="80" as="geometry" />
        </mxCell>
        <mxCell id="ZShziQPG1KF6FPyV5aTH-2" style="edgeStyle=orthogonalEdgeStyle;rounded=0;orthogonalLoop=1;jettySize=auto;html=1;" edge="1" parent="1">
          <mxGeometry relative="1" as="geometry">
            <mxPoint x="230" y="289.5" as="targetPoint" />
            <mxPoint x="100" y="289.5" as="sourcePoint" />
          </mxGeometry>
        </mxCell>
        <mxCell id="ZShziQPG1KF6FPyV5aTH-3" value="createNotification()" style="edgeLabel;html=1;align=center;verticalAlign=middle;resizable=0;points=[];" vertex="1" connectable="0" parent="ZShziQPG1KF6FPyV5aTH-2">
          <mxGeometry x="-0.1571" y="-3" relative="1" as="geometry">
            <mxPoint x="5" y="-3" as="offset" />
          </mxGeometry>
        </mxCell>
        <mxCell id="ZShziQPG1KF6FPyV5aTH-4" value="BeingEdited" style="swimlane;fontStyle=0;childLayout=stackLayout;horizontal=1;startSize=26;fillColor=none;horizontalStack=0;resizeParent=1;resizeParentMax=0;resizeLast=0;collapsible=1;marginBottom=0;whiteSpace=wrap;html=1;" vertex="1" parent="1">
          <mxGeometry x="230" y="230" width="160" height="120" as="geometry" />
        </mxCell>
        <mxCell id="ZShziQPG1KF6FPyV5aTH-5" value="Do / Promotional Notifications&lt;br&gt;Do / Delivery Notifications&amp;nbsp;" style="text;strokeColor=none;fillColor=none;align=left;verticalAlign=top;spacingLeft=4;spacingRight=4;overflow=hidden;rotatable=0;points=[[0,0.5],[1,0.5]];portConstraint=eastwest;whiteSpace=wrap;html=1;" vertex="1" parent="ZShziQPG1KF6FPyV5aTH-4">
          <mxGeometry y="26" width="160" height="94" as="geometry" />
        </mxCell>
        <mxCell id="ZShziQPG1KF6FPyV5aTH-6" value="Configured&amp;nbsp;" style="swimlane;fontStyle=0;childLayout=stackLayout;horizontal=1;startSize=26;fillColor=none;horizontalStack=0;resizeParent=1;resizeParentMax=0;resizeLast=0;collapsible=1;marginBottom=0;whiteSpace=wrap;html=1;" vertex="1" parent="1">
          <mxGeometry x="590" y="230" width="160" height="120" as="geometry" />
        </mxCell>
        <mxCell id="ZShziQPG1KF6FPyV5aTH-7" value="Do / Notification expired&lt;br&gt;Do / Notification of delivered meal&amp;nbsp;" style="text;strokeColor=none;fillColor=none;align=left;verticalAlign=top;spacingLeft=4;spacingRight=4;overflow=hidden;rotatable=0;points=[[0,0.5],[1,0.5]];portConstraint=eastwest;whiteSpace=wrap;html=1;" vertex="1" parent="ZShziQPG1KF6FPyV5aTH-6">
          <mxGeometry y="26" width="160" height="94" as="geometry" />
        </mxCell>
        <mxCell id="ZShziQPG1KF6FPyV5aTH-8" style="edgeStyle=orthogonalEdgeStyle;rounded=0;orthogonalLoop=1;jettySize=auto;html=1;entryX=-0.019;entryY=0.351;entryDx=0;entryDy=0;entryPerimeter=0;" edge="1" parent="1" target="ZShziQPG1KF6FPyV5aTH-7">
          <mxGeometry relative="1" as="geometry">
            <mxPoint x="580" y="290" as="targetPoint" />
            <mxPoint x="390" y="289.5" as="sourcePoint" />
          </mxGeometry>
        </mxCell>
        <mxCell id="ZShziQPG1KF6FPyV5aTH-9" value="viewNotification()" style="edgeLabel;html=1;align=center;verticalAlign=middle;resizable=0;points=[];" vertex="1" connectable="0" parent="ZShziQPG1KF6FPyV5aTH-8">
          <mxGeometry x="-0.1571" y="-3" relative="1" as="geometry">
            <mxPoint x="5" y="-3" as="offset" />
          </mxGeometry>
        </mxCell>
        <mxCell id="ZShziQPG1KF6FPyV5aTH-10" style="edgeStyle=orthogonalEdgeStyle;rounded=0;orthogonalLoop=1;jettySize=auto;html=1;exitX=0.419;exitY=1.043;exitDx=0;exitDy=0;exitPerimeter=0;" edge="1" parent="1" source="ZShziQPG1KF6FPyV5aTH-7">
          <mxGeometry relative="1" as="geometry">
            <mxPoint x="670" y="480" as="targetPoint" />
            <mxPoint x="580" y="440" as="sourcePoint" />
            <Array as="points">
              <mxPoint x="670" y="354" />
              <mxPoint x="670" y="415" />
              <mxPoint x="671" y="415" />
            </Array>
          </mxGeometry>
        </mxCell>
        <mxCell id="ZShziQPG1KF6FPyV5aTH-11" value="deleteNotification()" style="edgeLabel;html=1;align=center;verticalAlign=middle;resizable=0;points=[];" vertex="1" connectable="0" parent="ZShziQPG1KF6FPyV5aTH-10">
          <mxGeometry x="-0.1571" y="-3" relative="1" as="geometry">
            <mxPoint x="5" y="-3" as="offset" />
          </mxGeometry>
        </mxCell>
        <mxCell id="ZShziQPG1KF6FPyV5aTH-12" value="" style="ellipse;whiteSpace=wrap;html=1;aspect=fixed;fillColor=#1C8AEB;" vertex="1" parent="1">
          <mxGeometry x="630" y="480" width="80" height="80" as="geometry" />
        </mxCell>
      </root>
    </mxGraphModel>
  </diagram>
</mxfile>
